<?xml version="1.0" encoding="UTF-8" standalone="no"?>
<!-- Created with Inkscape (http://www.inkscape.org/) -->

<svg
   xmlns:dc="http://purl.org/dc/elements/1.1/"
   xmlns:cc="http://creativecommons.org/ns#"
   xmlns:rdf="http://www.w3.org/1999/02/22-rdf-syntax-ns#"
   xmlns:svg="http://www.w3.org/2000/svg"
   xmlns="http://www.w3.org/2000/svg"
   xmlns:sodipodi="http://sodipodi.sourceforge.net/DTD/sodipodi-0.dtd"
   xmlns:inkscape="http://www.inkscape.org/namespaces/inkscape"
   id="svg4206"
   version="1.1"
   inkscape:version="0.92.1 r15371"
   xml:space="preserve"
   width="119.32203mm"
   height="164.42099mm"
   viewBox="0 0 422.79464 582.59405"
   sodipodi:docname="Base.svg"><metadata
     id="metadata4212"><rdf:RDF><cc:Work
         rdf:about=""><dc:format>image/svg+xml</dc:format><dc:type
           rdf:resource="http://purl.org/dc/dcmitype/StillImage" /><dc:title /></cc:Work></rdf:RDF></metadata><defs
     id="defs4210"><clipPath
       clipPathUnits="userSpaceOnUse"
       id="clipPath4220"><path
         d="M 0,0 792,0 792,612 0,612 0,0 Z"
         id="path4222"
         inkscape:connector-curvature="0" /></clipPath></defs><sodipodi:namedview
     pagecolor="#ffffff"
     bordercolor="#666666"
     borderopacity="1"
     objecttolerance="10"
     gridtolerance="10"
     guidetolerance="10"
     inkscape:pageopacity="0"
     inkscape:pageshadow="2"
     inkscape:window-width="1920"
     inkscape:window-height="1017"
     id="namedview4208"
     showgrid="false"
     showguides="true"
     inkscape:guide-bbox="true"
     inkscape:zoom="1"
     inkscape:cx="415.34033"
     inkscape:cy="285.35745"
     inkscape:window-x="-8"
     inkscape:window-y="-8"
     inkscape:window-maximized="1"
     inkscape:current-layer="g4218"
     inkscape:document-units="mm"
     units="mm"
     fit-margin-top="5"
     fit-margin-left="5"
     fit-margin-right="5"
     fit-margin-bottom="5" /><g
     id="g4214"
     inkscape:groupmode="layer"
     inkscape:label="Base Drawing 1"
     transform="matrix(1.25,0,0,-1.25,-56.69862,690.99281)"><g
       id="g4216"
       transform="matrix(1.9896804,0,0,1.9896804,-542.14514,-294.62242)"
       style="stroke-width:0.14246739;stroke-miterlimit:4;stroke-dasharray:none"><g
         id="g4218"
         clip-path="url(#clipPath4220)"
         style="stroke-width:0.14246739;stroke-miterlimit:4;stroke-dasharray:none"><path
           d="m 365.20198,370.3233 v -7.12789"
           style="fill:none;stroke:#ff0000;stroke-width:0.14329688;stroke-linecap:round;stroke-linejoin:round;stroke-miterlimit:4;stroke-dasharray:none;stroke-opacity:1"
           id="path4224"
           inkscape:connector-curvature="0" /><path
           d="M 365.20198,363.19541 H 353.79737"
           style="fill:none;stroke:#ff0000;stroke-width:0.14329688;stroke-linecap:round;stroke-linejoin:round;stroke-miterlimit:4;stroke-dasharray:none;stroke-opacity:1"
           id="path4226"
           inkscape:connector-curvature="0" /><path
           d="m 353.79737,370.3233 v -7.12789"
           style="fill:none;stroke:#ff0000;stroke-width:0.14329688;stroke-linecap:round;stroke-linejoin:round;stroke-miterlimit:4;stroke-dasharray:none;stroke-opacity:1"
           id="path4228"
           inkscape:connector-curvature="0" /><path
           d="M 365.20198,370.3233 H 353.79737"
           style="fill:none;stroke:#ff0000;stroke-width:0.14329688;stroke-linecap:round;stroke-linejoin:round;stroke-miterlimit:4;stroke-dasharray:none;stroke-opacity:1"
           id="path4230"
           inkscape:connector-curvature="0" /><path
           d="m 396.55453,289.30007 h 11.4046"
           style="fill:none;stroke:#ff0000;stroke-width:0.14329688;stroke-linecap:round;stroke-linejoin:round;stroke-miterlimit:4;stroke-dasharray:none;stroke-opacity:1"
           id="path4232"
           inkscape:connector-curvature="0" /><path
           d="m 396.55453,289.30007 v 7.12787"
           style="fill:none;stroke:#ff0000;stroke-width:0.14329688;stroke-linecap:round;stroke-linejoin:round;stroke-miterlimit:4;stroke-dasharray:none;stroke-opacity:1"
           id="path4234"
           inkscape:connector-curvature="0" /><path
           d="m 396.55453,296.42794 h 11.4046"
           style="fill:none;stroke:#ff0000;stroke-width:0.14329688;stroke-linecap:round;stroke-linejoin:round;stroke-miterlimit:4;stroke-dasharray:none;stroke-opacity:1"
           id="path4236"
           inkscape:connector-curvature="0" /><path
           d="m 407.95913,289.30007 v 7.12787"
           style="fill:none;stroke:#ff0000;stroke-width:0.14329688;stroke-linecap:round;stroke-linejoin:round;stroke-miterlimit:4;stroke-dasharray:none;stroke-opacity:1"
           id="path4238"
           inkscape:connector-curvature="0" /><path
           d="m 365.20198,301.15415 v 7.12788"
           style="fill:none;stroke:#ff0000;stroke-width:0.14329688;stroke-linecap:round;stroke-linejoin:round;stroke-miterlimit:4;stroke-dasharray:none;stroke-opacity:1"
           id="path4240"
           inkscape:connector-curvature="0" /><path
           d="m 353.79737,301.15415 h 11.40461"
           style="fill:none;stroke:#ff0000;stroke-width:0.14329688;stroke-linecap:round;stroke-linejoin:round;stroke-miterlimit:4;stroke-dasharray:none;stroke-opacity:1"
           id="path4242"
           inkscape:connector-curvature="0" /><path
           d="m 353.79737,301.15415 v 7.12788"
           style="fill:none;stroke:#ff0000;stroke-width:0.14329688;stroke-linecap:round;stroke-linejoin:round;stroke-miterlimit:4;stroke-dasharray:none;stroke-opacity:1"
           id="path4244"
           inkscape:connector-curvature="0" /><path
           d="m 353.79737,308.28203 h 11.40461"
           style="fill:none;stroke:#ff0000;stroke-width:0.14329688;stroke-linecap:round;stroke-linejoin:round;stroke-miterlimit:4;stroke-dasharray:none;stroke-opacity:1"
           id="path4246"
           inkscape:connector-curvature="0" /><path
           d="m 396.55453,370.3233 h 11.4046"
           style="fill:none;stroke:#ff0000;stroke-width:0.14329688;stroke-linecap:round;stroke-linejoin:round;stroke-miterlimit:4;stroke-dasharray:none;stroke-opacity:1"
           id="path4248"
           inkscape:connector-curvature="0" /><path
           d="m 407.95913,370.3233 v -7.12789"
           style="fill:none;stroke:#ff0000;stroke-width:0.14329688;stroke-linecap:round;stroke-linejoin:round;stroke-miterlimit:4;stroke-dasharray:none;stroke-opacity:1"
           id="path4250"
           inkscape:connector-curvature="0" /><path
           d="m 396.55453,363.19541 h 11.4046"
           style="fill:none;stroke:#ff0000;stroke-width:0.14329688;stroke-linecap:round;stroke-linejoin:round;stroke-miterlimit:4;stroke-dasharray:none;stroke-opacity:1"
           id="path4252"
           inkscape:connector-curvature="0" /><path
           d="m 396.55453,370.3233 v -7.12789"
           style="fill:none;stroke:#ff0000;stroke-width:0.14329688;stroke-linecap:round;stroke-linejoin:round;stroke-miterlimit:4;stroke-dasharray:none;stroke-opacity:1"
           id="path4254"
           inkscape:connector-curvature="0" /><path
           d="m 365.20198,289.30007 v 7.12787"
           style="fill:none;stroke:#ff0000;stroke-width:0.14329688;stroke-linecap:round;stroke-linejoin:round;stroke-miterlimit:4;stroke-dasharray:none;stroke-opacity:1"
           id="path4256"
           inkscape:connector-curvature="0" /><path
           d="M 365.20198,289.30007 H 353.79737"
           style="fill:none;stroke:#ff0000;stroke-width:0.14329688;stroke-linecap:round;stroke-linejoin:round;stroke-miterlimit:4;stroke-dasharray:none;stroke-opacity:1"
           id="path4258"
           inkscape:connector-curvature="0" /><path
           d="m 353.79737,289.30007 v 7.12787"
           style="fill:none;stroke:#ff0000;stroke-width:0.14329688;stroke-linecap:round;stroke-linejoin:round;stroke-miterlimit:4;stroke-dasharray:none;stroke-opacity:1"
           id="path4260"
           inkscape:connector-curvature="0" /><path
           d="M 365.20198,296.42794 H 353.79737"
           style="fill:none;stroke:#ff0000;stroke-width:0.14329688;stroke-linecap:round;stroke-linejoin:round;stroke-miterlimit:4;stroke-dasharray:none;stroke-opacity:1"
           id="path4262"
           inkscape:connector-curvature="0" /><path
           d="m 375.10495,407.61594 c 0,-1.53527 -1.24458,-2.77986 -2.77986,-2.77986 -1.53528,0 -2.77986,1.24459 -2.77986,2.77986 0,1.5353 1.24458,2.77987 2.77986,2.77987 1.53528,0 2.77986,-1.24457 2.77986,-2.77987"
           style="fill:none;stroke:#ff0000;stroke-width:0.14329688;stroke-linecap:round;stroke-linejoin:round;stroke-miterlimit:4;stroke-dasharray:none;stroke-opacity:1"
           id="path4264"
           inkscape:connector-curvature="0" /><path
           d="m 392.21197,407.61594 c 0,-1.53527 -1.24458,-2.77986 -2.77986,-2.77986 -1.53528,0 -2.77988,1.24459 -2.77988,2.77986 0,1.5353 1.2446,2.77987 2.77988,2.77987 1.53528,0 2.77986,-1.24457 2.77986,-2.77987"
           style="fill:none;stroke:#ff0000;stroke-width:0.14329688;stroke-linecap:round;stroke-linejoin:round;stroke-miterlimit:4;stroke-dasharray:none;stroke-opacity:1"
           id="path4266"
           inkscape:connector-curvature="0" /><path
           d="m 392.21197,381.95559 c 0,-1.53527 -1.24458,-2.77987 -2.77986,-2.77987 -1.53528,0 -2.77988,1.2446 -2.77988,2.77987 0,1.53529 1.2446,2.77987 2.77988,2.77987 1.53528,0 2.77986,-1.24458 2.77986,-2.77987"
           style="fill:none;stroke:#ff0000;stroke-width:0.14329688;stroke-linecap:round;stroke-linejoin:round;stroke-miterlimit:4;stroke-dasharray:none;stroke-opacity:1"
           id="path4268"
           inkscape:connector-curvature="0" /><path
           d="m 375.10495,381.95559 c 0,-1.53527 -1.24458,-2.77987 -2.77986,-2.77987 -1.53528,0 -2.77986,1.2446 -2.77986,2.77987 0,1.53529 1.24458,2.77987 2.77986,2.77987 1.53528,0 2.77986,-1.24458 2.77986,-2.77987"
           style="fill:none;stroke:#ff0000;stroke-width:0.14329688;stroke-linecap:round;stroke-linejoin:round;stroke-miterlimit:4;stroke-dasharray:none;stroke-opacity:1"
           id="path4270"
           inkscape:connector-curvature="0" /><path
           d="m 382.66022,203.73406 c 0,-0.98416 -0.79781,-1.78197 -1.78196,-1.78197 -0.98415,0 -1.78198,0.79781 -1.78198,1.78197 0,0.98415 0.79783,1.78199 1.78198,1.78199 0.98415,0 1.78196,-0.79784 1.78196,-1.78199"
           style="fill:none;stroke:#ff0000;stroke-width:0.14329688;stroke-linecap:round;stroke-linejoin:round;stroke-miterlimit:4;stroke-dasharray:none;stroke-opacity:1"
           id="path4272"
           inkscape:connector-curvature="0" /><path
           d="M 459.28487,420.41954 V 263.60628"
           style="fill:none;stroke:#ff0000;stroke-width:0.14329688;stroke-linecap:round;stroke-linejoin:round;stroke-miterlimit:4;stroke-dasharray:none;stroke-opacity:1"
           id="path4278"
           inkscape:connector-curvature="0" /><path
           d="M 302.47163,420.41954 H 459.28487"
           style="fill:none;stroke:#ff0000;stroke-width:0.14329688;stroke-linecap:round;stroke-linejoin:round;stroke-miterlimit:4;stroke-dasharray:none;stroke-opacity:1"
           id="path4280"
           inkscape:connector-curvature="0" /><path
           d="M 302.47163,420.41954 V 263.60628"
           style="fill:none;stroke:#ff0000;stroke-width:0.14316314;stroke-linecap:round;stroke-linejoin:round;stroke-miterlimit:4;stroke-dasharray:none;stroke-opacity:1"
           id="path4282"
           inkscape:connector-curvature="0" /><path
           d="m 419.29778,350.59295 c 0,-1.53528 -1.24458,-2.77989 -2.77986,-2.77989 -1.53528,0 -2.77988,1.24461 -2.77988,2.77989 0,1.53528 1.2446,2.77987 2.77988,2.77987 1.53528,0 2.77986,-1.24459 2.77986,-2.77987"
           style="fill:none;stroke:#ff0000;stroke-width:0.14329688;stroke-linecap:round;stroke-linejoin:round;stroke-miterlimit:4;stroke-dasharray:none;stroke-opacity:1"
           id="path4284"
           inkscape:connector-curvature="0" /><path
           d="m 436.4048,350.59295 c 0,-1.53528 -1.24459,-2.77989 -2.77986,-2.77989 -1.53528,0 -2.77989,1.24461 -2.77989,2.77989 0,1.53528 1.24461,2.77987 2.77989,2.77987 1.53527,0 2.77986,-1.24459 2.77986,-2.77987"
           style="fill:none;stroke:#ff0000;stroke-width:0.14329688;stroke-linecap:round;stroke-linejoin:round;stroke-miterlimit:4;stroke-dasharray:none;stroke-opacity:1"
           id="path4286"
           inkscape:connector-curvature="0" /><path
           d="m 436.4048,376.25329 c 0,-1.53528 -1.24459,-2.77987 -2.77986,-2.77987 -1.53528,0 -2.77989,1.24459 -2.77989,2.77987 0,1.53528 1.24461,2.77987 2.77989,2.77987 1.53527,0 2.77986,-1.24459 2.77986,-2.77987"
           style="fill:none;stroke:#ff0000;stroke-width:0.14329688;stroke-linecap:round;stroke-linejoin:round;stroke-miterlimit:4;stroke-dasharray:none;stroke-opacity:1"
           id="path4288"
           inkscape:connector-curvature="0" /><path
           d="m 419.29778,376.25329 c 0,-1.53528 -1.24458,-2.77987 -2.77986,-2.77987 -1.53528,0 -2.77988,1.24459 -2.77988,2.77987 0,1.53528 1.2446,2.77987 2.77988,2.77987 1.53528,0 2.77986,-1.24459 2.77986,-2.77987"
           style="fill:none;stroke:#ff0000;stroke-width:0.14329688;stroke-linecap:round;stroke-linejoin:round;stroke-miterlimit:4;stroke-dasharray:none;stroke-opacity:1"
           id="path4290"
           inkscape:connector-curvature="0" /><path
           d="m 348.01915,350.59295 c 0,-1.53528 -1.24459,-2.77989 -2.77987,-2.77989 -1.53528,0 -2.77986,1.24461 -2.77986,2.77989 0,1.53528 1.24458,2.77987 2.77986,2.77987 1.53528,0 2.77987,-1.24459 2.77987,-2.77987"
           style="fill:none;stroke:#ff0000;stroke-width:0.14329688;stroke-linecap:round;stroke-linejoin:round;stroke-miterlimit:4;stroke-dasharray:none;stroke-opacity:1"
           id="path4292"
           inkscape:connector-curvature="0" /><path
           d="m 330.91214,350.59295 c 0,-1.53528 -1.2446,-2.77989 -2.77987,-2.77989 -1.53528,0 -2.77988,1.24461 -2.77988,2.77989 0,1.53528 1.2446,2.77987 2.77988,2.77987 1.53527,0 2.77987,-1.24459 2.77987,-2.77987"
           style="fill:none;stroke:#ff0000;stroke-width:0.14329688;stroke-linecap:round;stroke-linejoin:round;stroke-miterlimit:4;stroke-dasharray:none;stroke-opacity:1"
           id="path4294"
           inkscape:connector-curvature="0" /><path
           d="m 348.01915,376.25329 c 0,-1.53528 -1.24459,-2.77987 -2.77987,-2.77987 -1.53528,0 -2.77986,1.24459 -2.77986,2.77987 0,1.53528 1.24458,2.77987 2.77986,2.77987 1.53528,0 2.77987,-1.24459 2.77987,-2.77987"
           style="fill:none;stroke:#ff0000;stroke-width:0.14329688;stroke-linecap:round;stroke-linejoin:round;stroke-miterlimit:4;stroke-dasharray:none;stroke-opacity:1"
           id="path4296"
           inkscape:connector-curvature="0" /><path
           d="m 330.91214,376.25329 c 0,-1.53528 -1.2446,-2.77987 -2.77987,-2.77987 -1.53528,0 -2.77988,1.24459 -2.77988,2.77987 0,1.53528 1.2446,2.77987 2.77988,2.77987 1.53527,0 2.77987,-1.24459 2.77987,-2.77987"
           style="fill:none;stroke:#ff0000;stroke-width:0.14329688;stroke-linecap:round;stroke-linejoin:round;stroke-miterlimit:4;stroke-dasharray:none;stroke-opacity:1"
           id="path4298"
           inkscape:connector-curvature="0" /><path
           d="m 438.72272,321.38637 c 0,-0.98416 -0.79781,-1.78199 -1.78198,-1.78199 -0.98413,0 -1.78197,0.79783 -1.78197,1.78199 0,0.98414 0.79784,1.78195 1.78197,1.78195 0.98417,0 1.78198,-0.79781 1.78198,-1.78195"
           style="fill:none;stroke:#ff0000;stroke-width:0.14329688;stroke-linecap:round;stroke-linejoin:round;stroke-miterlimit:4;stroke-dasharray:none;stroke-opacity:1"
           id="path4300"
           inkscape:connector-curvature="0" /><path
           d="m 356.03936,321.38637 c 0,-0.98416 -0.79781,-1.78199 -1.78196,-1.78199 -0.98415,0 -1.78197,0.79783 -1.78197,1.78199 0,0.98414 0.79782,1.78195 1.78197,1.78195 0.98415,0 1.78196,-0.79781 1.78196,-1.78195"
           style="fill:none;stroke:#ff0000;stroke-width:0.14329688;stroke-linecap:round;stroke-linejoin:round;stroke-miterlimit:4;stroke-dasharray:none;stroke-opacity:1"
           id="path4302"
           inkscape:connector-curvature="0" /><path
           d="m 438.72272,251.53318 c 0,-0.98416 -0.79781,-1.78196 -1.78198,-1.78196 -0.98413,0 -1.78197,0.7978 -1.78197,1.78196 0,0.98415 0.79784,1.78198 1.78197,1.78198 0.98417,0 1.78198,-0.79783 1.78198,-1.78198"
           style="fill:none;stroke:#ff0000;stroke-width:0.14329688;stroke-linecap:round;stroke-linejoin:round;stroke-miterlimit:4;stroke-dasharray:none;stroke-opacity:1"
           id="path4304"
           inkscape:connector-curvature="0" /><path
           d="m 353.79737,358.46921 v -7.12787"
           style="fill:none;stroke:#ff0000;stroke-width:0.14329688;stroke-linecap:round;stroke-linejoin:round;stroke-miterlimit:4;stroke-dasharray:none;stroke-opacity:1"
           id="path4312"
           inkscape:connector-curvature="0" /><path
           d="m 353.79737,358.46921 h 11.40461"
           style="fill:none;stroke:#ff0000;stroke-width:0.14329688;stroke-linecap:round;stroke-linejoin:round;stroke-miterlimit:4;stroke-dasharray:none;stroke-opacity:1"
           id="path4314"
           inkscape:connector-curvature="0" /><path
           d="m 365.20198,358.46921 v -7.12787"
           style="fill:none;stroke:#ff0000;stroke-width:0.14329688;stroke-linecap:round;stroke-linejoin:round;stroke-miterlimit:4;stroke-dasharray:none;stroke-opacity:1"
           id="path4316"
           inkscape:connector-curvature="0" /><path
           d="m 353.79737,351.34134 h 11.40461"
           style="fill:none;stroke:#ff0000;stroke-width:0.14329688;stroke-linecap:round;stroke-linejoin:round;stroke-miterlimit:4;stroke-dasharray:none;stroke-opacity:1"
           id="path4318"
           inkscape:connector-curvature="0" /><path
           d="m 407.95913,358.46921 v -7.12787"
           style="fill:none;stroke:#ff0000;stroke-width:0.14329688;stroke-linecap:round;stroke-linejoin:round;stroke-miterlimit:4;stroke-dasharray:none;stroke-opacity:1"
           id="path4320"
           inkscape:connector-curvature="0" /><path
           d="m 407.95913,351.34134 h -11.4046"
           style="fill:none;stroke:#ff0000;stroke-width:0.14329688;stroke-linecap:round;stroke-linejoin:round;stroke-miterlimit:4;stroke-dasharray:none;stroke-opacity:1"
           id="path4322"
           inkscape:connector-curvature="0" /><path
           d="m 396.55453,358.46921 v -7.12787"
           style="fill:none;stroke:#ff0000;stroke-width:0.14329688;stroke-linecap:round;stroke-linejoin:round;stroke-miterlimit:4;stroke-dasharray:none;stroke-opacity:1"
           id="path4324"
           inkscape:connector-curvature="0" /><path
           d="m 407.95913,358.46921 h -11.4046"
           style="fill:none;stroke:#ff0000;stroke-width:0.14329688;stroke-linecap:round;stroke-linejoin:round;stroke-miterlimit:4;stroke-dasharray:none;stroke-opacity:1"
           id="path4326"
           inkscape:connector-curvature="0" /><path
           d="m 407.95913,301.15415 h -11.4046"
           style="fill:none;stroke:#ff0000;stroke-width:0.14329688;stroke-linecap:round;stroke-linejoin:round;stroke-miterlimit:4;stroke-dasharray:none;stroke-opacity:1"
           id="path4328"
           inkscape:connector-curvature="0" /><path
           d="m 396.55453,301.15415 v 7.12788"
           style="fill:none;stroke:#ff0000;stroke-width:0.14329688;stroke-linecap:round;stroke-linejoin:round;stroke-miterlimit:4;stroke-dasharray:none;stroke-opacity:1"
           id="path4330"
           inkscape:connector-curvature="0" /><path
           d="m 407.95913,308.28203 h -11.4046"
           style="fill:none;stroke:#ff0000;stroke-width:0.14329688;stroke-linecap:round;stroke-linejoin:round;stroke-miterlimit:4;stroke-dasharray:none;stroke-opacity:1"
           id="path4332"
           inkscape:connector-curvature="0" /><path
           d="m 407.95913,301.15415 v 7.12788"
           style="fill:none;stroke:#ff0000;stroke-width:0.14329688;stroke-linecap:round;stroke-linejoin:round;stroke-miterlimit:4;stroke-dasharray:none;stroke-opacity:1"
           id="path4334"
           inkscape:connector-curvature="0" /><path
           d="m 348.09037,228.11935 c 0,-1.57464 -1.2765,-2.85115 -2.85115,-2.85115 -1.57464,0 -2.85116,1.27651 -2.85116,2.85115 0,1.57465 1.27652,2.85116 2.85116,2.85116 1.57465,0 2.85115,-1.27651 2.85115,-2.85116"
           style="fill:none;stroke:#ff0000;stroke-width:0.14329688;stroke-linecap:round;stroke-linejoin:round;stroke-miterlimit:4;stroke-dasharray:none;stroke-opacity:1"
           id="path4336"
           inkscape:connector-curvature="0" /><path
           d="m 419.36913,228.11935 c 0,-1.57464 -1.2765,-2.85115 -2.85115,-2.85115 -1.57465,0 -2.85116,1.27651 -2.85116,2.85115 0,1.57465 1.27651,2.85116 2.85116,2.85116 1.57465,0 2.85115,-1.27651 2.85115,-2.85116"
           style="fill:none;stroke:#ff0000;stroke-width:0.14329688;stroke-linecap:round;stroke-linejoin:round;stroke-miterlimit:4;stroke-dasharray:none;stroke-opacity:1"
           id="path4338"
           inkscape:connector-curvature="0" /><path
           d="m 459.28487,263.60628 -2.01466,-5.19674 -2.28992,-5.21221 -2.5782,-5.1985 -2.87771,-5.15197 -3.18604,-5.06915 -3.4351,-4.8598 -3.74075,-4.70173 -4.04509,-4.50138 -4.34401,-4.25736 -3.913,-3.38788 -4.11236,-3.15323 -4.30043,-2.89217 -4.47464,-2.60578 -4.63249,-2.29563 -4.77163,-1.96386 -4.60764,-1.53057 -4.69368,-1.20507 -4.7594,-0.86875 -4.80376,-0.52447 -4.8261,-0.17537 -5.11811,0.19724 -5.09145,0.5897 -5.0386,0.97601 -4.96044,1.35235 -4.85833,1.71501 -4.73392,2.06071 -5.39205,2.84536 -5.16193,3.26107 -4.90729,3.6364 -4.63301,3.96893 -4.42025,4.33717 -4.11024,4.5893 -3.79461,4.79537 -3.47779,4.95695 -3.16382,5.07633 -2.80761,5.06388 -2.51927,5.10699 -2.24159,5.11913 -1.97632,5.10372"
           style="fill:none;stroke:#ff0000;stroke-width:0.14329688;stroke-linecap:round;stroke-linejoin:round;stroke-miterlimit:4;stroke-dasharray:none;stroke-opacity:1"
           id="path4340"
           inkscape:connector-curvature="0" /><path
           inkscape:connector-curvature="0"
           id="path4286-6"
           style="fill:none;stroke:#ff0000;stroke-width:0.14316314;stroke-linecap:round;stroke-linejoin:round;stroke-miterlimit:10;stroke-dasharray:none;stroke-opacity:1"
           d="m 385.47834,287.05916 c 0,-2.56936 -2.08288,-4.65223 -4.65223,-4.65223 -2.56936,0 -4.65224,2.08287 -4.65224,4.65223 0,2.56934 2.08288,4.65221 4.65224,4.65221 2.33208,0 4.2634,-1.71596 4.60021,-3.95414"
           sodipodi:nodetypes="csssc" /><path
           inkscape:connector-curvature="0"
           id="path4288-9"
           style="fill:none;stroke:#ff0000;stroke-width:0.14316314;stroke-linecap:round;stroke-linejoin:round;stroke-miterlimit:10;stroke-dasharray:none;stroke-opacity:1"
           d="m 382.75856,287.05916 c 0,-1.06728 -0.86518,-1.93248 -1.93245,-1.93248 -1.06727,0 -1.93247,0.8652 -1.93247,1.93248 0,1.06727 0.8652,1.93245 1.93247,1.93245 1.06727,0 1.93245,-0.86518 1.93245,-1.93245" /><path
           inkscape:connector-curvature="0"
           id="path4286-0"
           style="fill:none;stroke:#ff0000;stroke-width:0.14316314;stroke-linecap:round;stroke-linejoin:round;stroke-miterlimit:10;stroke-dasharray:none;stroke-opacity:1"
           d="m 385.49118,301.43016 c 0,-2.56936 -2.08287,-4.65225 -4.65223,-4.65225 -2.56936,0 -4.65223,2.08289 -4.65223,4.65225 0,2.56935 2.08287,4.65222 4.65223,4.65222 2.3321,0 4.26342,-1.71595 4.60021,-3.95416"
           sodipodi:nodetypes="csssc" /><path
           inkscape:connector-curvature="0"
           id="path4288-1"
           style="fill:none;stroke:#ff0000;stroke-width:0.14316314;stroke-linecap:round;stroke-linejoin:round;stroke-miterlimit:10;stroke-dasharray:none;stroke-opacity:1"
           d="m 382.77142,301.43016 c 0,-1.06729 -0.86519,-1.93247 -1.93247,-1.93247 -1.06727,0 -1.93246,0.86518 -1.93246,1.93247 0,1.06727 0.86519,1.93247 1.93246,1.93247 1.06728,0 1.93247,-0.8652 1.93247,-1.93247" /><path
           inkscape:connector-curvature="0"
           id="path4286-05"
           style="fill:none;stroke:#ff0000;stroke-width:0.14316314;stroke-linecap:round;stroke-linejoin:round;stroke-miterlimit:10;stroke-dasharray:none;stroke-opacity:1"
           d="m 385.5024,273.32289 c 0,-2.56935 -2.08288,-4.65221 -4.65224,-4.65221 -2.56935,0 -4.65222,2.08286 -4.65222,4.65221 0,2.56935 2.08287,4.65224 4.65222,4.65224 2.33209,0 4.26342,-1.71596 4.60022,-3.95415"
           sodipodi:nodetypes="csssc" /><path
           inkscape:connector-curvature="0"
           id="path4288-8"
           style="fill:none;stroke:#ff0000;stroke-width:0.14316314;stroke-linecap:round;stroke-linejoin:round;stroke-miterlimit:10;stroke-dasharray:none;stroke-opacity:1"
           d="m 382.78263,273.32289 c 0,-1.06725 -0.86519,-1.93245 -1.93247,-1.93245 -1.06727,0 -1.93245,0.8652 -1.93245,1.93245 0,1.06728 0.86518,1.93249 1.93245,1.93249 1.06728,0 1.93247,-0.86521 1.93247,-1.93249" /><path
           inkscape:connector-curvature="0"
           id="path4286-7"
           style="fill:none;stroke:#ff0000;stroke-width:0.14316314;stroke-linecap:round;stroke-linejoin:round;stroke-miterlimit:10;stroke-dasharray:none;stroke-opacity:1"
           d="m 385.41969,315.71542 c 0,-2.56936 -2.08288,-4.65223 -4.65223,-4.65223 -2.56935,0 -4.65221,2.08287 -4.65221,4.65223 0,2.56934 2.08286,4.65222 4.65221,4.65222 2.3321,0 4.26342,-1.71596 4.6002,-3.95414"
           sodipodi:nodetypes="csssc" /><path
           inkscape:connector-curvature="0"
           id="path4288-6"
           style="fill:none;stroke:#ff0000;stroke-width:0.14316314;stroke-linecap:round;stroke-linejoin:round;stroke-miterlimit:10;stroke-dasharray:none;stroke-opacity:1"
           d="m 382.69993,315.71542 c 0,-1.06727 -0.8652,-1.93248 -1.93247,-1.93248 -1.06727,0 -1.93246,0.86521 -1.93246,1.93248 0,1.06727 0.86519,1.93246 1.93246,1.93246 1.06727,0 1.93247,-0.86519 1.93247,-1.93246" /><g
           transform="matrix(0.35736188,0,0,0.35736188,252.2729,386.78991)"
           id="g6142"
           style="stroke-width:0.2832;stroke-miterlimit:10;stroke-dasharray:none"><path
             inkscape:connector-curvature="0"
             id="path3464"
             style="fill:#0000ff;fill-opacity:1;fill-rule:nonzero;stroke:none;stroke-width:0.2832;stroke-miterlimit:10;stroke-dasharray:none"
             d="m 215.082,51.594 -2.621,0.48 c -0.063,0.012 -0.133,0.071 -0.152,0.133 l -0.805,1.848 c -0.031,0.058 -0.024,0.144 0.016,0.199 l 1.523,2.195 c 0.035,0.055 0.031,0.137 -0.016,0.18 l -1.906,1.883 c -0.047,0.043 -0.129,0.051 -0.183,0.015 l -2.266,-1.535 c -0.051,-0.035 -0.145,-0.043 -0.203,-0.011 l -1.821,0.734 c -0.058,0.016 -0.121,0.086 -0.132,0.148 l -0.504,2.676 c -0.012,0.063 -0.074,0.113 -0.141,0.113 h -2.699 c -0.067,0 -0.129,-0.05 -0.137,-0.113 l -0.508,-2.676 c -0.011,-0.062 -0.07,-0.132 -0.132,-0.148 l -1.821,-0.734 c -0.058,-0.032 -0.152,-0.024 -0.203,0.011 l -2.266,1.535 c -0.054,0.036 -0.136,0.028 -0.183,-0.015 l -1.906,-1.883 c -0.047,-0.043 -0.055,-0.125 -0.016,-0.18 l 1.527,-2.195 c 0.036,-0.055 0.043,-0.141 0.012,-0.199 l -0.805,-1.848 c -0.019,-0.062 -0.089,-0.121 -0.156,-0.133 l -2.621,-0.48 c -0.062,-0.012 -0.117,-0.074 -0.117,-0.137 v -2.66 c 0,-0.066 0.055,-0.125 0.117,-0.141 l 2.559,-0.468 c 0.062,-0.012 0.132,-0.071 0.152,-0.133 l 0.797,-1.965 c 0.027,-0.059 0.023,-0.149 -0.012,-0.199 L 196,43.801 c -0.039,-0.055 -0.031,-0.133 0.016,-0.176 l 1.906,-1.883 c 0.047,-0.047 0.129,-0.054 0.183,-0.019 l 2.079,1.41 c 0.054,0.035 0.144,0.039 0.203,0.008 l 0.914,-0.485 c 0.058,-0.031 0.125,-0.008 0.152,0.055 l 1.891,4.504 c 0.023,0.058 0,0.137 -0.055,0.168 l -0.226,0.14 c -0.047,0.024 -0.102,0.071 -0.149,0.11 -0.828,0.519 -1.379,1.433 -1.379,2.476 0,1.625 1.336,2.946 2.988,2.946 1.649,0 2.985,-1.321 2.985,-2.946 0,-1.043 -0.551,-1.957 -1.379,-2.476 -0.043,-0.039 -0.102,-0.086 -0.145,-0.11 l -0.23,-0.14 c -0.055,-0.031 -0.078,-0.11 -0.059,-0.168 l 1.895,-4.504 c 0.023,-0.063 0.094,-0.086 0.152,-0.055 l 0.914,0.485 c 0.059,0.031 0.145,0.027 0.199,-0.008 l 2.083,-1.41 c 0.054,-0.035 0.136,-0.028 0.183,0.015 l 1.906,1.887 c 0.047,0.043 0.051,0.121 0.016,0.176 l -1.453,2.09 c -0.035,0.05 -0.043,0.14 -0.012,0.199 l 0.797,1.965 c 0.02,0.062 0.086,0.121 0.152,0.133 l 2.555,0.468 c 0.066,0.016 0.117,0.075 0.117,0.141 v 2.656 c 0,0.067 -0.051,0.129 -0.117,0.141" /><path
             inkscape:connector-curvature="0"
             id="path3466"
             style="fill:#0000ff;fill-opacity:1;fill-rule:evenodd;stroke:none;stroke-width:0.2832;stroke-miterlimit:10;stroke-dasharray:none"
             d="m 198.059,32.223 h 0.574 v 1.925 c 0,0.7 -0.485,0.934 -1.192,0.934 -0.429,0 -0.746,-0.113 -0.968,-0.414 l 0.453,-0.336 c 0.101,0.16 0.242,0.215 0.543,0.215 0.41,0 0.59,-0.094 0.59,-0.363 v -0.293 h -0.801 c -0.617,0 -0.934,-0.387 -0.934,-0.836 0,-0.492 0.375,-0.864 1.016,-0.864 0.387,0 0.586,0.09 0.703,0.282 h 0.016 z m 0,0.992 c 0,-0.442 -0.168,-0.488 -0.649,-0.488 -0.39,0 -0.543,0.168 -0.543,0.355 0,0.207 0.16,0.34 0.5,0.34 h 0.692 z" /><path
             inkscape:connector-curvature="0"
             id="path3468"
             style="fill:#0000ff;fill-opacity:1;fill-rule:evenodd;stroke:none;stroke-width:0.2832;stroke-miterlimit:10;stroke-dasharray:none"
             d="m 199.266,32.223 h 0.574 v 1.699 c 0,0.414 0.277,0.59 0.562,0.59 0.149,0 0.243,-0.039 0.379,-0.137 l 0.418,0.488 c -0.176,0.133 -0.371,0.219 -0.601,0.219 -0.301,0 -0.563,-0.113 -0.743,-0.336 h -0.015 v 0.301 h -0.574 z" /><path
             inkscape:connector-curvature="0"
             id="path3470"
             style="fill:#0000ff;fill-opacity:1;fill-rule:evenodd;stroke:none;stroke-width:0.2832;stroke-miterlimit:10;stroke-dasharray:none"
             d="m 202.922,32.223 h 0.578 v 3.968 h -0.578 v -1.445 c -0.215,0.203 -0.445,0.336 -0.738,0.336 -0.352,0 -0.606,-0.156 -0.77,-0.367 -0.16,-0.203 -0.207,-0.383 -0.207,-1.074 0,-0.7 0.047,-0.883 0.207,-1.082 0.164,-0.211 0.418,-0.368 0.77,-0.368 0.293,0 0.558,0.133 0.738,0.329 z m -0.567,2.289 c 0.54,0 0.567,-0.465 0.567,-0.871 0,-0.414 -0.027,-0.883 -0.567,-0.883 -0.539,0 -0.566,0.441 -0.566,0.883 0,0.433 0.027,0.871 0.566,0.871" /><path
             inkscape:connector-curvature="0"
             id="path3472"
             style="fill:#0000ff;fill-opacity:1;fill-rule:evenodd;stroke:none;stroke-width:0.2832;stroke-miterlimit:10;stroke-dasharray:none"
             d="m 206.438,32.223 h 0.511 l 0.914,2.824 h -0.609 l -0.547,-1.977 h -0.012 l -0.652,1.977 h -0.418 l -0.648,-1.977 h -0.012 l -0.551,1.977 h -0.605 l 0.914,-2.824 h 0.507 l 0.602,1.98 h 0.008 z" /><path
             inkscape:connector-curvature="0"
             id="path3474"
             style="fill:#0000ff;fill-opacity:1;fill-rule:evenodd;stroke:none;stroke-width:0.2832;stroke-miterlimit:10;stroke-dasharray:none"
             d="m 209.637,32.223 h 0.578 v 1.925 c 0,0.7 -0.488,0.934 -1.195,0.934 -0.426,0 -0.743,-0.113 -0.965,-0.414 l 0.453,-0.336 c 0.101,0.16 0.242,0.215 0.543,0.215 0.41,0 0.586,-0.094 0.586,-0.363 v -0.293 h -0.797 c -0.617,0 -0.934,-0.387 -0.934,-0.836 0,-0.492 0.375,-0.864 1.012,-0.864 0.391,0 0.586,0.09 0.707,0.282 h 0.012 z m 0,0.992 c 0,-0.442 -0.164,-0.488 -0.645,-0.488 -0.39,0 -0.543,0.168 -0.543,0.355 0,0.207 0.16,0.34 0.496,0.34 h 0.692 z" /><path
             inkscape:connector-curvature="0"
             id="path3476"
             style="fill:#0000ff;fill-opacity:1;fill-rule:evenodd;stroke:none;stroke-width:0.2832;stroke-miterlimit:10;stroke-dasharray:none"
             d="m 210.848,32.223 h 0.574 v 1.699 c 0,0.414 0.277,0.59 0.558,0.59 0.149,0 0.243,-0.039 0.379,-0.137 l 0.422,0.488 c -0.179,0.133 -0.371,0.219 -0.601,0.219 -0.305,0 -0.563,-0.113 -0.742,-0.336 h -0.016 v 0.301 h -0.574 z" /><path
             inkscape:connector-curvature="0"
             id="path3478"
             style="fill:#0000ff;fill-opacity:1;fill-rule:evenodd;stroke:none;stroke-width:0.2832;stroke-miterlimit:10;stroke-dasharray:none"
             d="m 215.148,33.422 v 0.469 c 0,0.726 -0.543,1.191 -1.175,1.191 -0.555,0 -1.184,-0.355 -1.184,-1.453 0,-1.16 0.684,-1.438 1.274,-1.438 0.382,0 0.75,0.133 1.031,0.457 l -0.418,0.348 c -0.168,-0.172 -0.406,-0.269 -0.625,-0.269 -0.395,0 -0.684,0.234 -0.684,0.695 z m -1.781,0.469 c 0.012,0.425 0.262,0.656 0.606,0.656 0.336,0 0.586,-0.231 0.601,-0.656 z" /><path
             inkscape:connector-curvature="0"
             id="path3480"
             style="fill:#0000ff;fill-opacity:1;fill-rule:evenodd;stroke:none;stroke-width:0.2832;stroke-miterlimit:10;stroke-dasharray:none"
             d="m 190.785,38.098 c 0,-0.614 0.09,-0.848 0.305,-1.086 0.16,-0.172 0.426,-0.364 0.871,-0.364 0.449,0 0.715,0.192 0.871,0.364 0.223,0.238 0.313,0.472 0.313,1.086 0,0.609 -0.09,0.84 -0.313,1.082 -0.156,0.172 -0.422,0.363 -0.871,0.363 -0.445,0 -0.711,-0.191 -0.871,-0.363 -0.215,-0.242 -0.305,-0.473 -0.305,-1.082 m 1.781,-0.004 c 0,-0.406 -0.031,-0.52 -0.14,-0.672 -0.086,-0.113 -0.266,-0.203 -0.465,-0.203 -0.195,0 -0.375,0.09 -0.461,0.203 -0.109,0.152 -0.141,0.266 -0.141,0.676 0,0.406 0.032,0.519 0.141,0.668 0.086,0.117 0.266,0.207 0.461,0.207 0.199,0 0.379,-0.09 0.465,-0.207 0.109,-0.149 0.14,-0.262 0.14,-0.672" /><path
             inkscape:connector-curvature="0"
             id="path3482"
             style="fill:#0000ff;fill-opacity:1;fill-rule:evenodd;stroke:none;stroke-width:0.2832;stroke-miterlimit:10;stroke-dasharray:none"
             d="m 198.676,37.879 v 0.469 c 0,0.73 -0.551,1.195 -1.184,1.195 -0.551,0 -1.179,-0.359 -1.179,-1.457 0,-1.156 0.683,-1.438 1.269,-1.438 0.387,0 0.754,0.137 1.035,0.458 l -0.418,0.351 c -0.168,-0.172 -0.406,-0.273 -0.629,-0.273 -0.394,0 -0.683,0.234 -0.683,0.695 z m -1.789,0.469 c 0.011,0.429 0.269,0.66 0.605,0.66 0.34,0 0.59,-0.231 0.606,-0.66 z" /><path
             inkscape:connector-curvature="0"
             id="path3484"
             style="fill:#0000ff;fill-opacity:1;fill-rule:evenodd;stroke:none;stroke-width:0.2832;stroke-miterlimit:10;stroke-dasharray:none"
             d="m 199.168,36.684 h 0.574 v 1.679 c 0,0.387 0.242,0.61 0.571,0.61 0.32,0 0.562,-0.223 0.562,-0.61 v -1.679 h 0.578 v 1.875 c 0,0.644 -0.508,0.984 -0.953,0.984 -0.305,0 -0.566,-0.113 -0.746,-0.336 h -0.012 v 0.301 h -0.574 z" /><path
             inkscape:connector-curvature="0"
             id="path3486"
             style="fill:#0000ff;fill-opacity:1;fill-rule:evenodd;stroke:none;stroke-width:0.2832;stroke-miterlimit:10;stroke-dasharray:none"
             d="m 203.012,37.156 c 0.367,-0.34 0.797,-0.508 1.258,-0.508 0.668,0 1.191,0.317 1.191,0.872 0,0.449 -0.238,0.808 -0.832,0.843 l -0.477,0.035 c -0.289,0.024 -0.379,0.145 -0.379,0.266 0,0.199 0.125,0.344 0.493,0.344 0.312,0 0.543,-0.11 0.769,-0.262 l 0.356,0.41 c -0.282,0.235 -0.621,0.387 -1.125,0.387 -0.602,0 -1.067,-0.297 -1.067,-0.871 0,-0.484 0.348,-0.766 0.824,-0.801 l 0.508,-0.043 c 0.199,-0.019 0.352,-0.082 0.352,-0.281 0,-0.238 -0.238,-0.363 -0.567,-0.363 -0.382,0 -0.652,0.125 -0.902,0.363 z" /><path
             inkscape:connector-curvature="0"
             id="path3488"
             style="fill:#0000ff;fill-opacity:1;fill-rule:evenodd;stroke:none;stroke-width:0.2832;stroke-miterlimit:10;stroke-dasharray:none"
             d="m 205.785,38.098 c 0,-0.614 0.09,-0.848 0.313,-1.086 0.16,-0.172 0.422,-0.364 0.871,-0.364 0.445,0 0.711,0.192 0.867,0.364 0.223,0.238 0.312,0.472 0.312,1.086 0,0.609 -0.089,0.84 -0.312,1.082 -0.156,0.172 -0.422,0.363 -0.867,0.363 -0.449,0 -0.711,-0.191 -0.871,-0.363 -0.223,-0.242 -0.313,-0.473 -0.313,-1.082 m 1.789,-0.004 c 0,-0.406 -0.035,-0.52 -0.144,-0.672 -0.082,-0.113 -0.262,-0.203 -0.461,-0.203 -0.199,0 -0.379,0.09 -0.465,0.203 -0.106,0.152 -0.141,0.266 -0.141,0.676 0,0.406 0.035,0.519 0.141,0.668 0.086,0.117 0.266,0.207 0.465,0.207 0.199,0 0.379,-0.09 0.461,-0.207 0.109,-0.149 0.144,-0.262 0.144,-0.672" /><path
             inkscape:connector-curvature="0"
             id="path3490"
             style="fill:#0000ff;fill-opacity:1;fill-rule:evenodd;stroke:none;stroke-width:0.2832;stroke-miterlimit:10;stroke-dasharray:none"
             d="m 208.641,37.629 c 0,-0.637 0.507,-0.981 0.961,-0.981 0.3,0 0.558,0.114 0.738,0.336 h 0.012 v -0.3 h 0.578 v 2.824 h -0.578 v -1.68 c 0,-0.387 -0.243,-0.609 -0.567,-0.609 -0.324,0 -0.57,0.222 -0.57,0.609 v 1.68 h -0.574 z" /><path
             inkscape:connector-curvature="0"
             id="path3492"
             style="fill:#0000ff;fill-opacity:1;fill-rule:evenodd;stroke:none;stroke-width:0.2832;stroke-miterlimit:10;stroke-dasharray:none"
             d="m 211.563,36.684 h 0.574 v 1.699 c 0,0.41 0.273,0.59 0.558,0.59 0.149,0 0.243,-0.039 0.379,-0.137 l 0.418,0.488 c -0.176,0.133 -0.367,0.219 -0.597,0.219 -0.305,0 -0.567,-0.113 -0.747,-0.336 h -0.011 v 0.301 h -0.574 z" /><path
             inkscape:connector-curvature="0"
             id="path3494"
             style="fill:#0000ff;fill-opacity:1;fill-rule:evenodd;stroke:none;stroke-width:0.2832;stroke-miterlimit:10;stroke-dasharray:none"
             d="m 215.328,37.512 c -0.14,-0.172 -0.344,-0.293 -0.582,-0.293 -0.469,0 -0.742,0.262 -0.742,0.875 0,0.617 0.273,0.879 0.742,0.879 0.238,0 0.442,-0.121 0.582,-0.293 l 0.422,0.371 c -0.246,0.285 -0.59,0.492 -1.027,0.492 -0.66,0 -1.301,-0.414 -1.301,-1.449 0,-1.031 0.641,-1.446 1.301,-1.446 0.437,0 0.781,0.208 1.027,0.493 z" /><path
             inkscape:connector-curvature="0"
             id="path3496"
             style="fill:#0000ff;fill-opacity:1;fill-rule:evenodd;stroke:none;stroke-width:0.2832;stroke-miterlimit:10;stroke-dasharray:none"
             d="m 218.262,37.879 v 0.469 c 0,0.73 -0.551,1.195 -1.184,1.195 -0.551,0 -1.18,-0.359 -1.18,-1.457 0,-1.156 0.684,-1.438 1.274,-1.438 0.383,0 0.75,0.137 1.031,0.458 l -0.418,0.351 c -0.168,-0.172 -0.406,-0.273 -0.625,-0.273 -0.394,0 -0.683,0.234 -0.683,0.695 z m -1.785,0.469 c 0.007,0.429 0.265,0.66 0.601,0.66 0.34,0 0.59,-0.231 0.606,-0.66 z" /><path
             inkscape:connector-curvature="0"
             id="path3498"
             style="fill:#0000ff;fill-opacity:1;fill-rule:nonzero;stroke:none;stroke-width:0.2832;stroke-miterlimit:10;stroke-dasharray:none"
             d="m 194.777,37.219 c 0.543,0 0.571,0.437 0.571,0.875 0,0.441 -0.028,0.879 -0.571,0.879 -0.535,0 -0.566,-0.469 -0.566,-0.879 0,-0.406 0.031,-0.875 0.566,-0.875 m -1.144,-4.996 v 7.285 h 0.578 v -0.293 c 0.184,0.191 0.445,0.328 0.742,0.328 0.352,0 0.606,-0.156 0.77,-0.371 0.156,-0.199 0.199,-0.383 0.199,-1.078 0,-0.692 -0.043,-0.875 -0.199,-1.074 -0.164,-0.215 -0.418,-0.372 -0.77,-0.372 -0.297,0 -0.527,0.137 -0.742,0.336 v -2.238 c 0.191,0.223 0.449,0.336 0.754,0.336 0.449,0 0.957,-0.34 0.957,-0.98 v -1.879 h -0.578 v 1.683 c 0,0.383 -0.242,0.606 -0.563,0.606 -0.328,0 -0.57,-0.223 -0.57,-0.606 v -1.683 z" /><path
             inkscape:connector-curvature="0"
             id="path3500"
             style="fill:#0000ff;fill-opacity:1;fill-rule:nonzero;stroke:none;stroke-width:0.2832;stroke-miterlimit:10;stroke-dasharray:none"
             d="m 247.184,53.93 c 2.066,0 3.816,-0.703 5.238,-2.102 1.43,-1.41 2.144,-3.133 2.144,-5.164 0,-2.039 -0.703,-3.742 -2.109,-5.101 -1.492,-1.442 -3.25,-2.165 -5.273,-2.165 -1.996,0 -3.723,0.711 -5.188,2.141 -1.445,1.43 -2.172,3.137 -2.172,5.125 0,1.988 0.727,3.711 2.172,5.164 1.422,1.399 3.149,2.102 5.188,2.102 z m 0.023,-1.313 c -1.676,0 -3.094,-0.578 -4.25,-1.738 -1.203,-1.207 -1.805,-2.613 -1.805,-4.215 0,-1.609 0.598,-3.004 1.789,-4.18 1.196,-1.175 2.618,-1.761 4.266,-1.761 1.641,0 3.074,0.593 4.293,1.777 1.156,1.098 1.734,2.484 1.734,4.164 0,1.652 -0.586,3.059 -1.761,4.215 -1.176,1.16 -2.598,1.738 -4.266,1.738 z m 1.977,-4.152 v -2.969 h -0.844 v -3.527 h -2.289 v 3.527 h -0.844 v 2.969 c 0,0.133 0.047,0.242 0.137,0.332 0.094,0.09 0.207,0.137 0.336,0.137 h 3.031 c 0.121,0 0.23,-0.047 0.328,-0.137 0.094,-0.09 0.145,-0.199 0.145,-0.332 z m -3.016,1.871 c 0,0.684 0.34,1.023 1.027,1.023 0.684,0 1.028,-0.339 1.028,-1.023 0,-0.676 -0.344,-1.012 -1.028,-1.012 -0.683,0 -1.027,0.336 -1.027,1.012 z" /><path
             inkscape:connector-curvature="0"
             id="path3502"
             style="fill:#0000ff;fill-opacity:1;fill-rule:nonzero;stroke:none;stroke-width:0.2832;stroke-miterlimit:10;stroke-dasharray:none"
             d="m 230.887,53.93 c 2.062,0 3.816,-0.711 5.265,-2.129 0.692,-0.684 1.219,-1.465 1.578,-2.34 0.36,-0.879 0.54,-1.813 0.54,-2.797 0,-0.996 -0.176,-1.93 -0.532,-2.797 -0.355,-0.867 -0.879,-1.636 -1.574,-2.304 -0.719,-0.696 -1.539,-1.235 -2.449,-1.606 -0.91,-0.371 -1.856,-0.559 -2.828,-0.559 -0.973,0 -1.907,0.184 -2.797,0.551 -0.891,0.367 -1.692,0.903 -2.399,1.598 -0.703,0.695 -1.242,1.48 -1.609,2.351 -0.367,0.875 -0.555,1.797 -0.555,2.766 0,0.957 0.188,1.883 0.559,2.77 0.375,0.886 0.918,1.679 1.629,2.379 1.402,1.41 3.125,2.117 5.172,2.117 z m 0.023,-1.313 c -1.68,0 -3.097,-0.578 -4.25,-1.738 -0.578,-0.578 -1.023,-1.231 -1.336,-1.949 -0.308,-0.723 -0.465,-1.481 -0.465,-2.266 0,-0.777 0.157,-1.531 0.465,-2.25 0.313,-0.723 0.758,-1.367 1.336,-1.933 0.578,-0.571 1.235,-1 1.965,-1.297 0.727,-0.301 1.488,-0.45 2.285,-0.45 0.793,0 1.559,0.149 2.301,0.454 0.742,0.304 1.41,0.738 2.004,1.308 1.152,1.11 1.723,2.496 1.723,4.168 0,0.801 -0.145,1.567 -0.446,2.281 -0.297,0.719 -0.73,1.36 -1.301,1.922 -1.187,1.168 -2.613,1.75 -4.281,1.75 z m -0.09,-4.746 -0.988,-0.508 c -0.105,0.215 -0.234,0.368 -0.387,0.453 -0.152,0.086 -0.297,0.133 -0.429,0.133 -0.657,0 -0.989,-0.429 -0.989,-1.285 0,-0.391 0.086,-0.703 0.254,-0.933 0.164,-0.235 0.41,-0.352 0.735,-0.352 0.429,0 0.734,0.207 0.91,0.621 l 0.906,-0.453 c -0.191,-0.356 -0.461,-0.633 -0.801,-0.836 -0.343,-0.203 -0.722,-0.305 -1.133,-0.305 -0.66,0 -1.191,0.2 -1.593,0.598 -0.403,0.394 -0.602,0.949 -0.602,1.66 0,0.692 0.199,1.238 0.61,1.645 0.41,0.406 0.921,0.613 1.546,0.613 0.911,0 1.567,-0.352 1.961,-1.051 z m 4.25,0 -0.972,-0.508 c -0.106,0.215 -0.235,0.368 -0.391,0.453 -0.152,0.086 -0.297,0.133 -0.441,0.133 -0.657,0 -0.985,-0.429 -0.985,-1.285 0,-0.391 0.082,-0.703 0.25,-0.933 0.164,-0.235 0.41,-0.352 0.735,-0.352 0.429,0 0.734,0.207 0.91,0.621 l 0.922,-0.453 c -0.203,-0.356 -0.473,-0.633 -0.817,-0.836 -0.34,-0.203 -0.715,-0.305 -1.117,-0.305 -0.668,0 -1.199,0.2 -1.598,0.598 -0.402,0.394 -0.601,0.949 -0.601,1.66 0,0.692 0.203,1.238 0.609,1.645 0.41,0.406 0.926,0.613 1.547,0.613 0.914,0 1.563,-0.352 1.949,-1.051 z" /><path
             inkscape:connector-curvature="0"
             id="path3504"
             style="fill:#0000ff;fill-opacity:1;fill-rule:nonzero;stroke:none;stroke-width:0.2832;stroke-miterlimit:10;stroke-dasharray:none"
             d="m 263.477,53.93 c 2.062,0 3.808,-0.703 5.238,-2.117 1.433,-1.399 2.144,-3.118 2.144,-5.149 0,-2.035 -0.699,-3.738 -2.101,-5.113 -1.485,-1.434 -3.246,-2.153 -5.281,-2.153 -1.993,0 -3.719,0.711 -5.184,2.141 -1.449,1.426 -2.172,3.137 -2.172,5.125 0,1.981 0.723,3.695 2.172,5.149 1.43,1.414 3.156,2.117 5.184,2.117 z m 0.027,-1.313 c -1.676,0 -3.094,-0.582 -4.25,-1.75 -1.203,-1.203 -1.805,-2.601 -1.805,-4.203 0,-1.621 0.594,-3.012 1.789,-4.18 1.196,-1.175 2.614,-1.761 4.266,-1.761 1.641,0 3.07,0.593 4.289,1.777 1.16,1.106 1.738,2.492 1.738,4.164 0,1.66 -0.586,3.063 -1.761,4.203 -1.168,1.168 -2.59,1.75 -4.266,1.75 z m -3.293,-4.929 c 0.144,0.89 0.504,1.582 1.094,2.07 0.59,0.488 1.304,0.73 2.144,0.73 1.16,0 2.082,-0.363 2.766,-1.101 0.683,-0.735 1.027,-1.676 1.027,-2.828 0,-1.114 -0.355,-2.043 -1.066,-2.782 -0.711,-0.738 -1.633,-1.109 -2.766,-1.109 -0.832,0 -1.551,0.246 -2.156,0.738 -0.606,0.492 -0.973,1.196 -1.094,2.106 h 1.856 c 0.043,-0.883 0.586,-1.328 1.621,-1.328 0.515,0 0.933,0.222 1.25,0.664 0.316,0.441 0.472,1.031 0.472,1.761 0,0.774 -0.144,1.356 -0.433,1.758 -0.289,0.406 -0.707,0.606 -1.25,0.606 -0.985,0 -1.535,-0.426 -1.66,-1.285 h 0.543 l -1.465,-1.438 -1.461,1.438 z" /><text
             id="text3538"
             style="font-variant:normal;font-weight:normal;line-height:0%;font-family:Verdana;-inkscape-font-specification:Verdana;writing-mode:lr-tb;fill:#0000ff;fill-opacity:1;fill-rule:nonzero;stroke:none;stroke-width:0.2832;stroke-miterlimit:10;stroke-dasharray:none"
             transform="matrix(1,0,0,-1,145.40362,67.266168)"><tspan
               id="tspan3540"
               sodipodi:role="line"
               y="0"
               x="0 14.724 29.448 43.577999 50.112 57.779999 68.688004 79.902 90.809998 97.902 102.834 112.194 117.054 127.854 134.388 143.748 154.65601"
               style="font-size:18px;line-height:1.25">www.roboticia.com</tspan></text>
</g><path
           d="m 417.17183,389.37616 c -0.60003,0.21536 -0.92812,0.73048 -0.92812,1.45742 0,0.54494 0.089,0.84876 0.37762,1.27138 0.25832,0.38116 0.59195,0.59247 1.08991,0.68548 0.68294,0.13043 1.26784,-0.12638 1.54992,-0.67941 0.1284,-0.25277 0.14811,-0.39481 0.12081,-0.89276 -0.0338,-0.63746 -0.13446,-0.90033 -0.50957,-1.32901 -0.43069,-0.48935 -1.15711,-0.70874 -1.70057,-0.5131 z m 1.16928,0.56062 c 0.61825,0.57681 0.70469,1.75162 0.16783,2.28899 -0.19967,0.19716 -0.25075,0.21283 -0.61622,0.1835 -0.44993,-0.0373 -0.61623,-0.15418 -0.8887,-0.62027 -0.35134,-0.59803 -0.29219,-1.45741 0.12839,-1.87951 0.19967,-0.19968 0.25075,-0.21334 0.61825,-0.18401 0.29219,0.0238 0.45194,0.0808 0.59045,0.2113 z m 4.46878,-0.59449 c -0.12232,0.0358 -0.2942,0.0848 -0.38519,0.11476 -0.10262,0.0318 -0.16581,0.0197 -0.16581,-0.0313 0,-0.0454 -0.11677,-0.0833 -0.25681,-0.0833 -0.25681,0 -0.25883,0.002 -0.21888,0.27652 0.15166,1.0707 0.33921,2.92443 0.37913,3.73629 l 0.0449,0.96959 0.26488,0.0278 c 0.1441,0.0157 -0.77596,0.0333 -2.04785,0.0394 -1.83048,0.0101 -2.55336,0.0434 -3.48352,0.16176 -1.4276,0.18148 -1.62122,0.23912 -1.8027,0.53738 -0.13042,0.21484 -0.14003,0.39277 -0.14204,2.47603 0,2.16413 0.006,2.2531 0.15216,2.44064 0.0843,0.10667 0.22292,0.23102 0.30786,0.27653 0.0848,0.0454 0.78002,0.15974 1.54436,0.25276 0.76383,0.093 1.39573,0.17945 1.40585,0.19158 0.0101,0.0117 0.12233,0.33566 0.24872,0.72087 0.12638,0.3847 0.38925,1.02065 0.58034,1.41394 l 0.35183,0.71279 -0.76434,0.9716 c -0.98122,1.24763 -1.03884,1.34267 -1.03884,1.73747 v 0.3281 l 1.61361,1.61715 1.6111,1.61715 h 0.39126 c 0.38876,0 0.39887,-0.006 1.52617,-0.89072 l 1.13541,-0.8887 0.73096,0.35386 c 0.40291,0.19513 1.04845,0.46002 1.43721,0.5864 l 0.70722,0.23303 0.0848,0.63192 c 0.0475,0.3493 0.0965,0.74816 0.1087,0.89023 0.0789,0.84723 0.14204,1.24608 0.19714,1.24608 0.0338,0 0.0454,0.0454 0.0238,0.10111 -0.0217,0.0551 0.0808,0.20322 0.22901,0.33365 l 0.26893,0.23507 2.29607,-0.0216 2.2986,-0.0238 0.18754,-0.17593 c 0.24317,-0.22696 0.34375,-0.54696 0.36145,-1.13943 0.006,-0.26439 0.0338,-0.47975 0.0576,-0.48177 0.0232,0 0.0666,-0.2391 0.0946,-0.53129 0.10464,-1.1354 0.0373,-1.03278 0.84119,-1.29515 0.38925,-0.1284 1.03479,-0.39329 1.43163,-0.59044 l 0.7249,-0.3574 0.99892,0.78558 c 1.36086,1.0722 1.33912,1.06056 1.74556,1.01508 0.33213,-0.0373 0.38521,-0.0828 1.93917,-1.64092 l 1.59795,-1.60351 -0.004,-0.32959 c -0.002,-0.18149 -0.0373,-0.39481 -0.0793,-0.47216 -0.0414,-0.0788 -0.44384,-0.61219 -0.89628,-1.18645 l -0.82147,-1.0429 0.33768,-0.68498 c 0.1835,-0.37711 0.4484,-1.01508 0.58439,-1.41798 0.13851,-0.40492 0.25679,-0.74462 0.26489,-0.75626 0.0101,-0.0122 0.57426,-0.0848 1.25571,-0.1658 1.51453,-0.17591 1.72585,-0.23104 1.96495,-0.51564 l 0.18956,-0.22495 v -2.23541 c 0,-2.46643 -0.0157,-2.55894 -0.45244,-2.7844 -0.12436,-0.0652 -0.3215,-0.10465 -0.43828,-0.0869 -0.11426,0.0162 -0.20928,0.008 -0.20928,-0.0197 0,-0.0293 -0.24114,-0.0769 -0.53333,-0.10667 -0.29219,-0.0313 -0.66323,-0.0749 -0.825,-0.0985 -0.16025,-0.0238 -4.70386,-0.053 -10.09675,-0.0651 l -9.80454,-0.0217 -0.0414,-0.2386 c -0.0469,-0.25479 -0.26641,-2.02058 -0.26641,-2.13684 0,-0.0394 0.11828,0.0691 0.26236,0.2391 0.33416,0.38876 0.62635,0.54092 1.053,0.54496 0.73654,0.0101 1.10153,-0.44637 1.10356,-1.37855 0,-0.28208 -0.0333,-0.63393 -0.0749,-0.78406 -0.11676,-0.41857 -0.51563,-0.95746 -0.84117,-1.13338 -0.3377,-0.18148 -0.92611,-0.26439 -1.24613,-0.17389 z m 1.04442,0.56114 c 0.62431,0.46406 0.79972,1.74959 0.30634,2.24298 -0.55708,0.55708 -1.45741,-0.0632 -1.67479,-1.15511 -0.10464,-0.51715 -0.14609,-1.21224 -0.0707,-1.16522 0.0333,0.0217 0.12032,0.002 0.19109,-0.0414 0.21332,-0.12993 1.01509,-0.053 1.24813,0.1188 z m 0.85129,6.8897 c 0.0611,0.36145 0.0729,0.37308 0.42666,0.49946 l 0.36499,0.13042 0.24669,-0.18955 c 0.13446,-0.10262 0.29421,-0.18755 0.35184,-0.18755 0.0985,0 0.78406,0.67537 0.78406,0.77192 0,0.0238 -0.10111,0.16986 -0.22343,0.32203 l -0.22498,0.28006 0.16987,0.3579 c 0.15772,0.33161 0.19361,0.36094 0.46203,0.38266 0.15976,0.0122 0.33366,0.0576 0.38522,0.10111 0.10063,0.0828 0.1279,0.916 0.0353,1.06211 -0.0318,0.0475 -0.21536,0.11476 -0.41099,0.14609 -0.33971,0.0571 -0.35942,0.0753 -0.48935,0.42059 l -0.13851,0.35943 0.45801,0.5768 -0.82298,0.82349 -0.31597,-0.22346 c -0.29471,-0.20926 -0.5591,-0.25832 -0.45041,-0.0808 0.0278,0.0434 0.0137,0.0571 -0.0277,0.0318 -0.0414,-0.0278 -0.1754,-0.0142 -0.30027,0.0293 -0.19716,0.0692 -0.23102,0.12234 -0.28409,0.458 l -0.0591,0.37914 -0.50148,0.0217 c -0.57478,0.0258 -0.70723,-0.0449 -0.70924,-0.37914 -0.002,-0.31191 -0.0571,-0.37914 -0.44991,-0.549 l -0.3397,-0.14407 -0.24722,0.21131 c -0.13394,0.11476 -0.28004,0.2113 -0.3215,0.21332 -0.0414,0.002 -0.24872,-0.17187 -0.46002,-0.38519 l -0.38319,-0.38876 0.229,-0.30988 0.22901,-0.31241 -0.14813,-0.34527 c -0.14406,-0.32959 -0.16781,-0.34981 -0.52321,-0.40694 l -0.37105,-0.0611 v -0.58237 c 0,-0.63391 -0.002,-0.62987 0.46002,-0.67738 0.32556,-0.0338 0.29018,-0.002 0.4479,-0.40897 l 0.12638,-0.32354 -0.22496,-0.31391 -0.22698,-0.31444 0.37711,-0.35336 c 0.20525,-0.19362 0.40492,-0.36296 0.44234,-0.37711 0.0394,-0.0137 0.18147,0.0591 0.31797,0.16378 0.29623,0.22748 0.28612,0.22546 0.6774,0.0631 0.30988,-0.12838 0.38672,-0.2487 0.38874,-0.61217 0,-0.10465 0.0238,-0.21282 0.0535,-0.24063 0.0272,-0.0278 0.29977,-0.0414 0.60409,-0.0298 l 0.55304,0.0197 0.0632,0.37154 z m -1.34671,1.39575 c -0.30229,0.13245 -0.70317,0.49997 -0.8513,0.78406 -0.12637,0.23911 -0.25275,0.86697 -0.19563,0.96201 0.0217,0.0353 0.0474,0.17743 0.0556,0.31595 0.0101,0.13801 0.11224,0.38672 0.23104,0.55657 0.60409,0.8609 1.81683,1.03077 2.59483,0.36752 1.27138,-1.0904 0.53281,-3.11047 -1.13389,-3.09833 -0.24264,0 -0.55859,0.051 -0.70065,0.11222 z m 13.42761,-1.42152 c 0.0216,0.18957 0.0557,0.35538 0.0733,0.36903 0.0985,0.0692 0.60005,0.27651 0.66728,0.27651 0.0434,0 0.17796,-0.0828 0.29624,-0.18348 0.12031,-0.10063 0.25882,-0.18351 0.30786,-0.18351 0.0495,0 0.25074,0.16379 0.44637,0.36296 0.38925,0.39532 0.38724,0.36952 0.0693,0.88466 -0.10668,0.16834 -0.10263,0.20978 0.0414,0.5313 0.14206,0.31595 0.17946,0.34779 0.4029,0.34779 0.45597,0 0.47974,0.0333 0.47974,0.65921 v 0.57074 l -0.22901,0.0454 c -0.12638,0.0258 -0.30026,0.0454 -0.3852,0.0454 -0.12233,0 -0.18755,0.0828 -0.29015,0.37106 l -0.13246,0.37357 0.18956,0.24671 c 0.10263,0.13446 0.18756,0.28813 0.18756,0.33969 0,0.11426 -0.6592,0.79772 -0.76789,0.79367 -0.0414,0 -0.18958,-0.0946 -0.32809,-0.21131 l -0.25275,-0.20928 -0.33364,0.14408 c -0.38672,0.16581 -0.44234,0.23507 -0.44436,0.54495 -0.002,0.33414 -0.13395,0.40492 -0.70873,0.37913 l -0.50148,-0.0217 -0.0652,-0.37306 c -0.0591,-0.35942 -0.0768,-0.38117 -0.41857,-0.52524 l -0.3574,-0.15217 -0.26894,0.21333 c -0.14812,0.11881 -0.29017,0.21333 -0.31595,0.21333 -0.0253,0 -0.22495,-0.17946 -0.44384,-0.40087 l -0.39532,-0.40088 0.229,-0.28814 0.23102,-0.28664 -0.15165,-0.36295 c -0.14812,-0.34982 -0.16784,-0.3655 -0.52929,-0.43071 l -0.37508,-0.0672 -0.0217,-0.50148 c -0.0142,-0.29624 0.0117,-0.5409 0.0592,-0.60005 0.0454,-0.0557 0.22091,-0.11071 0.38875,-0.12284 0.28662,-0.0197 0.31594,-0.0449 0.47214,-0.37509 l 0.16785,-0.35539 -0.22143,-0.28056 c -0.12233,-0.15367 -0.2209,-0.30583 -0.2209,-0.33921 0,-0.10312 0.68345,-0.76231 0.78962,-0.76231 0.0556,0 0.2113,0.0848 0.34576,0.18755 l 0.24671,0.18955 0.36549,-0.13042 c 0.35335,-0.12436 0.36548,-0.14003 0.40895,-0.47012 0.0253,-0.18756 0.0688,-0.36296 0.0965,-0.39077 0.0278,-0.0298 0.3003,-0.0414 0.6041,-0.0298 l 0.55304,0.0197 0.0393,0.34578 z m -1.4574,1.49686 c -0.6415,0.31998 -0.99486,0.9539 -0.93571,1.68033 0.0808,0.99336 0.94178,1.72787 1.90528,1.62929 0.96201,-0.099 1.59949,-0.79215 1.59949,-1.73999 0,-1.35075 -1.35227,-2.17576 -2.56906,-1.56963 z m -7.08082,-8.89008 c -0.65769,0.24113 -0.96757,0.81136 -0.91246,1.67429 0.0591,0.90285 0.59246,1.56002 1.41596,1.74403 0.99335,0.22091 1.71775,-0.38115 1.72181,-1.43163 0.002,-0.56518 -0.087,-0.86493 -0.38118,-1.29766 -0.41249,-0.60411 -1.23802,-0.91196 -1.84413,-0.68903 z m 1.20819,0.62988 c 0.59247,0.62229 0.6597,1.69046 0.13649,2.21367 -0.27046,0.27046 -0.73857,0.28613 -1.10607,0.0394 -0.70065,-0.47215 -0.85889,-1.76526 -0.28613,-2.33802 0.17541,-0.17592 0.26844,-0.20928 0.59247,-0.20928 0.35335,0 0.40643,0.0238 0.66324,0.29421 z m 4.26558,-0.68499 c -0.0911,0.0197 -0.16582,0.0666 -0.16582,0.10667 0,0.0414 -0.0318,0.053 -0.0713,0.0293 -0.0373,-0.0238 -0.12436,0.0632 -0.19361,0.19564 -0.10053,0.19714 -0.11425,0.36903 -0.0768,1.01103 0.0238,0.42464 0.0651,0.94582 0.0925,1.15714 l 0.0495,0.38519 h -0.27249 c -0.26084,0 -0.27045,0.008 -0.24668,0.23862 0.0197,0.22343 0.0414,0.23911 0.32555,0.26084 l 0.30434,0.0216 0.0632,0.49188 c 0.0632,0.48935 0.0632,0.49136 0.30989,0.51512 0.24668,0.0238 0.24668,0.0217 0.2017,-0.2391 -0.0258,-0.14408 -0.0652,-0.37713 -0.0911,-0.51917 l -0.0434,-0.25681 h 0.49187 c 0.47772,0 0.49339,-0.006 0.44992,-0.16379 -0.0238,-0.091 -0.0454,-0.20725 -0.0454,-0.2568 0,-0.0651 -0.14408,-0.0926 -0.46962,-0.0926 -0.54698,0 -0.51159,0.0611 -0.63596,-1.07422 -0.0611,-0.56872 -0.0571,-0.78608 0.0177,-1.01711 0.089,-0.26641 0.12233,-0.29422 0.37914,-0.31596 0.15418,-0.0122 0.37711,0.0101 0.49542,0.051 0.19563,0.0693 0.21332,0.0616 0.21332,-0.10263 0,-0.27801 -0.61775,-0.52118 -1.08181,-0.42615 z m 7.693,0.0217 c -0.35336,0.0864 -0.60005,0.29422 -0.80125,0.66931 -0.14812,0.27855 -0.16985,0.40493 -0.1466,0.91044 0.0535,1.22033 0.73653,1.88762 1.94321,1.89924 0.29017,0.002 0.54496,-0.0137 0.56872,-0.0373 0.0217,-0.0217 0.006,-0.14002 -0.0373,-0.26236 l -0.0769,-0.22143 -0.50349,0.0353 c -0.43476,0.0318 -0.54141,0.0122 -0.77648,-0.13196 -0.68498,-0.42463 -0.83106,-1.73798 -0.24468,-2.22934 0.28259,-0.2391 0.78406,-0.25681 1.18494,-0.0414 0.15014,0.0788 0.28613,0.14608 0.3018,0.14608 0.0142,0 0.006,-0.10666 -0.0217,-0.23709 -0.0808,-0.39884 -0.78001,-0.64959 -1.39017,-0.49945 z m 7.35378,-0.004 c -0.38116,0.0965 -0.66728,0.35335 -0.88465,0.7977 -0.18957,0.38673 -0.20726,0.4858 -0.20524,1.26382 0,0.97361 0.1087,1.38208 0.56063,2.10092 0.62835,0.99739 1.56003,1.55194 2.87742,1.71421 0.32757,0.0393 0.80173,0.0986 1.05451,0.13195 0.25274,0.0338 0.47164,0.0495 0.48579,0.0338 0.0137,-0.0137 -0.004,-0.182 -0.0394,-0.37156 -0.4307,-2.28646 -0.57477,-4.30248 -0.3832,-5.30796 0.0353,-0.18552 0.0197,-0.19716 -0.35335,-0.24466 -0.21333,-0.0258 -0.44638,-0.0652 -0.51765,-0.0849 -0.11626,-0.0333 -0.1284,0.0318 -0.1284,0.66577 0,0.3847 -0.0258,0.70065 -0.0571,0.70065 -0.0298,0 -0.11829,-0.11627 -0.19563,-0.25681 -0.17542,-0.32959 -0.77799,-0.89424 -1.08786,-1.02265 -0.32001,-0.13447 -0.84727,-0.18959 -1.12582,-0.12031 z m 1.45136,1.05248 c 0.25478,0.19159 0.4029,0.40846 0.74059,1.08181 0.36144,0.72492 0.43676,0.94583 0.53129,1.57772 0.0591,0.40291 0.10869,0.91045 0.1107,1.12783 v 0.39683 l -0.51361,-0.0434 c -1.00294,-0.0848 -1.787,-0.61977 -2.17018,-1.48472 -0.33972,-0.77243 -0.39683,-1.86031 -0.12436,-2.43913 0.23911,-0.51109 0.90236,-0.61169 1.42557,-0.21687 z m -41.94195,-0.77041 c 0.32555,2.03826 0.84877,7.24712 0.84877,8.4619 v 0.48175 l 1.48723,0.0469 c 1.52213,0.0454 2.14441,0.002 2.75458,-0.2012 0.38521,-0.12839 0.92004,-0.52726 0.85281,-0.63596 -0.0231,-0.0394 0,-0.0611 0.0535,-0.0489 0.053,0.0117 0.17592,-0.1446 0.27653,-0.34781 0.14002,-0.28815 0.17743,-0.47568 0.17389,-0.89274 -0.0102,-0.94582 -0.54344,-1.76529 -1.45539,-2.23694 -0.26084,-0.13446 -0.47418,-0.26084 -0.47418,-0.28258 0,-0.0216 0.11678,-0.10063 0.26084,-0.17946 0.54699,-0.29421 0.94785,-0.94987 1.35076,-2.20204 0.2664,-0.83714 0.58843,-2.00843 0.58843,-2.15047 0,-0.0709 -0.1461,-0.0889 -0.59247,-0.0729 l -0.59448,0.0217 -0.24468,0.97718 c -0.44031,1.74757 -0.80177,2.46643 -1.39424,2.76467 -0.24112,0.12032 -0.47214,0.15015 -1.32697,0.17188 l -1.0348,0.0238 -0.0434,-0.28056 c -0.0373,-0.25073 -0.10463,-1.10001 -0.24062,-3.08823 l -0.0434,-0.60662 h -1.24611 l 0.0434,0.27652 z m 3.57806,4.72156 c 0.8058,0.17188 1.40585,0.62431 1.60705,1.21476 0.0535,0.15367 0.097,0.48175 0.099,0.72644 0.004,0.57679 -0.23305,0.96148 -0.74261,1.21425 -0.31191,0.15217 -0.47772,0.17593 -1.38816,0.19967 -0.84725,0.0197 -1.0525,0.004 -1.14348,-0.087 -0.0729,-0.0734 -0.12842,-0.33971 -0.16177,-0.79569 -0.0278,-0.37509 -0.0931,-1.10406 -0.14409,-1.61918 l -0.093,-0.93622 h 0.79012 c 0.43424,0 0.96353,0.0373 1.17685,0.0828 z m 25.3235,-4.79435 c 0.0985,0.4954 0.2113,1.51858 0.25429,2.32792 l 0.0474,0.8806 0.2745,0.0217 c 0.32606,0.0277 0.31797,0.0774 0.17188,-1.05453 -0.0571,-0.44028 -0.1284,-1.15712 -0.1562,-1.58935 l -0.051,-0.79012 h -0.29018 c -0.27854,0 -0.29067,0.0101 -0.25074,0.20373 z m 7.89269,0.006 c 0,0.0749 0.0848,0.75979 0.18753,1.52213 0.1087,0.79417 0.20727,1.95687 0.23103,2.71717 l 0.0434,1.32901 0.37509,0.0454 c 0.69913,0.0848 0.65768,0.12031 0.60814,-0.5212 -0.0238,-0.31392 -0.0926,-0.93216 -0.15368,-1.37653 -0.10312,-0.75827 -0.19361,-1.72383 -0.3023,-3.20902 l -0.0474,-0.64152 h -0.47014 c -0.40846,0 -0.46963,0.0177 -0.46963,0.13446 h -0.002 z m -7.39931,3.9648 c -0.29219,0.18554 0.0495,0.80176 0.38724,0.69712 0.30988,-0.0965 0.34325,-0.32354 0.0848,-0.58237 -0.1916,-0.18956 -0.30634,-0.21939 -0.47216,-0.11475 z m 8.31732,2.81019 c -0.0808,0.0454 -0.17187,0.11829 -0.20119,0.16177 -0.097,0.14609 -0.0571,0.66728 0.0632,0.84117 0.25479,0.36347 0.89428,0.4565 1.05654,0.15217 0.11021,-0.20525 0.0848,-0.67942 -0.0474,-0.86697 -0.10669,-0.15215 -0.51362,-0.37914 -0.6673,-0.37309 -0.0318,0 -0.12284,0.0394 -0.20373,0.0849 z m -29.16797,13.64296 c -0.50147,0.5768 -1.36642,1.58177 -1.92552,2.23135 l -1.01256,1.1809 -0.26691,-0.13598 c -0.52726,-0.26894 -1.35076,-0.13649 -1.80067,0.29017 -0.49388,0.46811 -0.64807,1.32294 -0.34577,1.9134 0.57275,1.12376 2.14644,1.2006 2.84556,0.14205 0.17795,-0.26642 0.20323,-0.37712 0.20323,-0.86495 0,-0.40442 -0.0353,-0.61218 -0.12639,-0.75222 l -0.12839,-0.1936 2.03624,-1.75365 c 1.11769,-0.96555 2.12469,-1.83404 2.23742,-1.93108 l 0.20525,-0.17593 -0.50554,-0.50149 -0.50752,-0.50146 z m 25.15162,-0.54698 -0.4939,0.49945 2.23541,1.92958 2.23744,1.92704 -0.12841,0.19563 c -0.0925,0.14004 -0.1284,0.34577 -0.1284,0.75222 0,0.48783 0.0258,0.59853 0.20373,0.86495 0.29573,0.44839 0.71075,0.69508 1.22587,0.73249 1.02722,0.0753 1.76174,-0.59398 1.76174,-1.59946 0,-0.69307 -0.35538,-1.24408 -0.96756,-1.49837 -0.34982,-0.1466 -1.02318,-0.13043 -1.34114,0.0294 l -0.2467,0.12638 -1.62929,-1.89367 c -0.89425,-1.04237 -1.66265,-1.87397 -1.70411,-1.84817 -0.0414,0.0258 -0.055,0.0117 -0.0273,-0.0299 0.0253,-0.0434 -0.0774,-0.21535 -0.22747,-0.38318 l -0.2745,-0.30584 -0.49541,0.50147 z"
           style="fill:#0000ff;fill-opacity:1;fill-rule:nonzero;stroke:none;stroke-width:0.2832;stroke-miterlimit:10;stroke-dasharray:none"
           id="path3546"
           inkscape:connector-curvature="0" /><path
           inkscape:connector-curvature="0"
           id="path4288-8-7"
           style="fill:none;stroke:#ff0000;stroke-width:0.15355033;stroke-linecap:round;stroke-linejoin:round;stroke-miterlimit:10;stroke-dasharray:none;stroke-opacity:1"
           d="m 398.86977,335.11555 c 0,-1.1447 -0.92796,-2.07266 -2.07267,-2.07266 -1.1447,0 -2.07266,0.92796 -2.07266,2.07266 0,1.1447 0.92796,2.07268 2.07266,2.07268 0.27524,0 0.53795,-0.0535 0.77825,-0.15106 m 0.61266,-0.34244 c 0.49151,-0.379 0.68176,-0.91052 0.68176,-1.57918"
           sodipodi:nodetypes="csssccc" /><circle
           style="opacity:1;fill:none;fill-opacity:1;fill-rule:nonzero;stroke:#ff0000;stroke-width:0.13791882;stroke-miterlimit:4;stroke-dasharray:none;stroke-dashoffset:0;stroke-opacity:1"
           id="path6017"
           cx="-396.79733"
           cy="-335.0795"
           transform="scale(-1)"
           r="1.0057672" /><path
           inkscape:connector-curvature="0"
           id="path4288-8-7-8"
           style="fill:none;stroke:#ff0000;stroke-width:0.15355033;stroke-linecap:round;stroke-linejoin:round;stroke-miterlimit:10;stroke-dasharray:none;stroke-opacity:1"
           d="m 388.9044,335.12555 c 0,-1.1447 -0.92798,-2.07266 -2.07268,-2.07266 -1.14471,0 -2.07266,0.92796 -2.07266,2.07266 0,1.14471 0.92795,2.07269 2.07266,2.07269 0.27525,0 0.53796,-0.0535 0.77825,-0.15106 m 0.61267,-0.34244 c 0.4915,-0.37901 0.68176,-0.91052 0.68176,-1.57919"
           sodipodi:nodetypes="csssccc" /><circle
           style="opacity:1;fill:none;fill-opacity:1;fill-rule:nonzero;stroke:#ff0000;stroke-width:0.13791882;stroke-miterlimit:4;stroke-dasharray:none;stroke-dashoffset:0;stroke-opacity:1"
           id="path6017-6"
           cx="-386.83197"
           cy="-335.08951"
           r="1.0057673"
           transform="scale(-1)" /><path
           inkscape:connector-curvature="0"
           id="path4288-8-7-5"
           style="fill:none;stroke:#ff0000;stroke-width:0.15355033;stroke-linecap:round;stroke-linejoin:round;stroke-miterlimit:10;stroke-dasharray:none;stroke-opacity:1"
           d="m 379.60284,335.15084 c 0,-1.1447 -0.92797,-2.07268 -2.07267,-2.07268 -1.14472,0 -2.07268,0.92798 -2.07268,2.07268 0,1.1447 0.92796,2.07268 2.07268,2.07268 0.27524,0 0.53794,-0.0535 0.77824,-0.15107 m 0.61267,-0.34243 c 0.4915,-0.37902 0.68176,-0.91053 0.68176,-1.57918"
           sodipodi:nodetypes="csssccc" /><circle
           style="opacity:1;fill:none;fill-opacity:1;fill-rule:nonzero;stroke:#ff0000;stroke-width:0.13791882;stroke-miterlimit:4;stroke-dasharray:none;stroke-dashoffset:0;stroke-opacity:1"
           id="path6017-4"
           cx="-377.53043"
           cy="-335.11472"
           r="1.0057673"
           transform="scale(-1)" /><path
           inkscape:connector-curvature="0"
           id="path4288-8-7-59"
           style="fill:none;stroke:#ff0000;stroke-width:0.15355033;stroke-linecap:round;stroke-linejoin:round;stroke-miterlimit:10;stroke-dasharray:none;stroke-opacity:1"
           d="m 408.61966,335.12554 c 0,-1.1447 -0.92797,-2.07266 -2.07267,-2.07266 -1.14471,0 -2.07266,0.92796 -2.07266,2.07266 0,1.14471 0.92795,2.07269 2.07266,2.07269 0.27523,0 0.53795,-0.0536 0.77825,-0.15106 m 0.61266,-0.34244 c 0.4915,-0.37901 0.68176,-0.91052 0.68176,-1.57919"
           sodipodi:nodetypes="csssccc" /><circle
           style="opacity:1;fill:none;fill-opacity:1;fill-rule:nonzero;stroke:#ff0000;stroke-width:0.13791882;stroke-miterlimit:4;stroke-dasharray:none;stroke-dashoffset:0;stroke-opacity:1"
           id="path6017-7"
           cx="-406.54724"
           cy="-335.08963"
           r="1.0057673"
           transform="scale(-1)" /></g></g></g></svg>