<?xml version="1.0" encoding="UTF-8" standalone="no"?>
<!-- Created with Inkscape (http://www.inkscape.org/) -->

<svg
   xmlns:dc="http://purl.org/dc/elements/1.1/"
   xmlns:cc="http://creativecommons.org/ns#"
   xmlns:rdf="http://www.w3.org/1999/02/22-rdf-syntax-ns#"
   xmlns:svg="http://www.w3.org/2000/svg"
   xmlns="http://www.w3.org/2000/svg"
   xmlns:sodipodi="http://sodipodi.sourceforge.net/DTD/sodipodi-0.dtd"
   xmlns:inkscape="http://www.inkscape.org/namespaces/inkscape"
   id="svg6059"
   version="1.1"
   inkscape:version="0.92.1 r15371"
   xml:space="preserve"
   width="90.000008mm"
   height="90mm"
   viewBox="0 0 318.89766 318.89765"
   sodipodi:docname="lidar_base.svg"><metadata
     id="metadata6065"><rdf:RDF><cc:Work
         rdf:about=""><dc:format>image/svg+xml</dc:format><dc:type
           rdf:resource="http://purl.org/dc/dcmitype/StillImage" /><dc:title /></cc:Work></rdf:RDF></metadata><defs
     id="defs6063"><clipPath
       clipPathUnits="userSpaceOnUse"
       id="clipPath6073"><path
         d="M 0,0 792,0 792,612 0,612 0,0 Z"
         id="path6075"
         inkscape:connector-curvature="0" /></clipPath></defs><sodipodi:namedview
     pagecolor="#ffffff"
     bordercolor="#666666"
     borderopacity="1"
     objecttolerance="10"
     gridtolerance="10"
     guidetolerance="10"
     inkscape:pageopacity="0"
     inkscape:pageshadow="2"
     inkscape:window-width="1920"
     inkscape:window-height="1017"
     id="namedview6061"
     showgrid="false"
     inkscape:zoom="1.7479772"
     inkscape:cx="131.83784"
     inkscape:cy="153.69059"
     inkscape:window-x="-8"
     inkscape:window-y="-8"
     inkscape:window-maximized="1"
     inkscape:current-layer="g6067"
     inkscape:document-units="mm"
     fit-margin-top="5"
     fit-margin-left="5"
     fit-margin-bottom="5"
     fit-margin-right="5"
     units="mm" /><g
     id="g6067"
     inkscape:groupmode="layer"
     inkscape:label="lidar_base Drawing"
     transform="matrix(1.25,0,0,-1.25,-392.76105,619.37761)"><g
       id="g6069"
       style="stroke:#ff0000;stroke-width:0.2832;stroke-miterlimit:4;stroke-dasharray:none;stroke-opacity:1"
       transform="matrix(2.0000046,0,0,2.0000046,-328.38356,-254.55836)"><g
         id="g6071"
         clip-path="url(#clipPath6073)"
         style="stroke:#ff0000;stroke-width:0.2832;stroke-miterlimit:4;stroke-dasharray:none;stroke-opacity:1"><path
           d="m 328.52367,311.39171 c 0,-31.31063 25.38228,-56.69292 56.69291,-56.69292 31.31063,0 56.69292,25.38229 56.69292,56.69292 0,31.31063 -25.38229,56.69291 -56.69292,56.69291 -31.31063,0 -56.69291,-25.38228 -56.69291,-56.69291"
           style="fill:none;stroke:#ff0000;stroke-width:0.2832;stroke-linecap:round;stroke-linejoin:round;stroke-miterlimit:4;stroke-dasharray:none;stroke-opacity:1"
           id="path6077"
           inkscape:connector-curvature="0" /><path
           d="m 412.65546,281.82685 c 0,-1.17415 0.95183,-2.12598 2.12598,-2.12598 1.17415,0 2.12599,0.95183 2.12599,2.12598 0,1.17415 -0.95184,2.12598 -2.12599,2.12598 -1.17415,0 -2.12598,-0.95183 -2.12598,-2.12598"
           style="fill:none;stroke:#ff0000;stroke-width:0.2832;stroke-linecap:round;stroke-linejoin:round;stroke-miterlimit:4;stroke-dasharray:none;stroke-opacity:1"
           id="path6079"
           inkscape:connector-curvature="0" /><path
           d="m 353.52574,281.82685 c 0,-1.17415 0.95184,-2.12598 2.12598,-2.12598 1.17415,0 2.12599,0.95183 2.12599,2.12598 0,1.17415 -0.95184,2.12598 -2.12599,2.12598 -1.17414,0 -2.12598,-0.95183 -2.12598,-2.12598"
           style="fill:none;stroke:#ff0000;stroke-width:0.2832;stroke-linecap:round;stroke-linejoin:round;stroke-miterlimit:4;stroke-dasharray:none;stroke-opacity:1"
           id="path6081"
           inkscape:connector-curvature="0" /><path
           d="m 353.52574,340.95657 c 0,-1.17415 0.95184,-2.12599 2.12598,-2.12599 1.17415,0 2.12599,0.95184 2.12599,2.12599 0,1.17414 -0.95184,2.12598 -2.12599,2.12598 -1.17414,0 -2.12598,-0.95184 -2.12598,-2.12598"
           style="fill:none;stroke:#ff0000;stroke-width:0.2832;stroke-linecap:round;stroke-linejoin:round;stroke-miterlimit:4;stroke-dasharray:none;stroke-opacity:1"
           id="path6083"
           inkscape:connector-curvature="0" /><path
           d="m 412.65546,340.95657 c 0,-1.17415 0.95183,-2.12599 2.12598,-2.12599 1.17415,0 2.12599,0.95184 2.12599,2.12599 0,1.17414 -0.95184,2.12598 -2.12599,2.12598 -1.17415,0 -2.12598,-0.95184 -2.12598,-2.12598"
           style="fill:none;stroke:#ff0000;stroke-width:0.2832;stroke-linecap:round;stroke-linejoin:round;stroke-miterlimit:4;stroke-dasharray:none;stroke-opacity:1"
           id="path6085"
           inkscape:connector-curvature="0" /><path
           d="m 382.38194,302.88777 c 0,-1.56553 1.26911,-2.83464 2.83464,-2.83464 1.56553,0 2.83465,1.26911 2.83465,2.83464 0,1.56553 -1.26912,2.83465 -2.83465,2.83465 -1.56553,0 -2.83464,-1.26912 -2.83464,-2.83465"
           style="fill:none;stroke:#ff0000;stroke-width:0.2832;stroke-linecap:round;stroke-linejoin:round;stroke-miterlimit:4;stroke-dasharray:none;stroke-opacity:1"
           id="path6087"
           inkscape:connector-curvature="0" /><path
           d="m 373.878,311.39171 c 0,-1.56553 1.26911,-2.83465 2.83465,-2.83465 1.56553,0 2.83464,1.26912 2.83464,2.83465 0,1.56553 -1.26911,2.83464 -2.83464,2.83464 -1.56554,0 -2.83465,-1.26911 -2.83465,-2.83464"
           style="fill:none;stroke:#ff0000;stroke-width:0.2832;stroke-linecap:round;stroke-linejoin:round;stroke-miterlimit:4;stroke-dasharray:none;stroke-opacity:1"
           id="path6089"
           inkscape:connector-curvature="0" /><path
           d="m 382.38194,319.89564 c 0,-1.56553 1.26911,-2.83464 2.83464,-2.83464 1.56553,0 2.83465,1.26911 2.83465,2.83464 0,1.56554 -1.26912,2.83465 -2.83465,2.83465 -1.56553,0 -2.83464,-1.26911 -2.83464,-2.83465"
           style="fill:none;stroke:#ff0000;stroke-width:0.2832;stroke-linecap:round;stroke-linejoin:round;stroke-miterlimit:4;stroke-dasharray:none;stroke-opacity:1"
           id="path6091"
           inkscape:connector-curvature="0" /><path
           d="m 390.88587,311.39171 c 0,-1.56553 1.26912,-2.83465 2.83465,-2.83465 1.56553,0 2.83465,1.26912 2.83465,2.83465 0,1.56553 -1.26912,2.83464 -2.83465,2.83464 -1.56553,0 -2.83465,-1.26911 -2.83465,-2.83464"
           style="fill:none;stroke:#ff0000;stroke-width:0.2832;stroke-linecap:round;stroke-linejoin:round;stroke-miterlimit:4;stroke-dasharray:none;stroke-opacity:1"
           id="path6093"
           inkscape:connector-curvature="0" /></g></g><path
       d="m 418.39172,418.40021 c -1.16242,0.41722 -1.79801,1.41514 -1.79801,2.82337 0,1.05568 0.1722,1.64422 0.73157,2.4629 0.5004,0.73842 1.14672,1.14774 2.11134,1.32794 1.32304,0.25266 2.45607,-0.24498 3.00253,-1.31616 0.24882,-0.48968 0.28706,-0.76484 0.23415,-1.72947 -0.0656,-1.23486 -0.26062,-1.74412 -0.98714,-2.57459 -0.83434,-0.94795 -2.24158,-1.37295 -3.29432,-0.99399 z m 2.26509,1.08608 c 1.19769,1.1174 1.36514,3.39327 0.32514,4.43423 -0.38681,0.38194 -0.48575,0.4123 -1.19375,0.35548 -0.8716,-0.0724 -1.19376,-0.29852 -1.7216,-1.20156 -0.68064,-1.15853 -0.56607,-2.82331 0.2488,-3.64103 0.38686,-0.38684 0.48576,-0.41328 1.19772,-0.35648 0.56602,0.0462 0.87547,0.15679 1.14381,0.40936 z m 8.65699,-1.15167 c -0.23706,0.0696 -0.56996,0.16441 -0.7462,0.22241 -0.199,0.0617 -0.3212,0.0382 -0.3212,-0.0609 0,-0.0878 -0.2262,-0.1616 -0.49752,-0.1616 -0.49746,0 -0.50138,0.002 -0.42404,0.53569 0.29376,2.0741 0.65712,5.66519 0.73448,7.23796 l 0.087,1.8783 0.51316,0.0538 c 0.2791,0.032 -1.50324,0.0648 -3.96715,0.0766 -3.54604,0.0199 -4.94643,0.0842 -6.74833,0.31348 -2.76553,0.35158 -3.14063,0.46322 -3.49215,1.04102 -0.25266,0.4162 -0.27114,0.7609 -0.27528,4.79657 0,4.19239 0.014,4.36475 0.2947,4.72805 0.1636,0.2068 0.4319,0.44756 0.59642,0.53568 0.1644,0.0878 1.51105,0.30936 2.99175,0.48966 1.47968,0.1804 2.70384,0.34765 2.72338,0.37117 0.0199,0.0222 0.23706,0.65022 0.48182,1.39648 0.2447,0.74522 0.75411,1.97716 1.12428,2.73907 l 0.68156,1.38084 -1.4807,1.88217 c -1.90078,2.41689 -2.01244,2.60104 -2.01244,3.36584 v 0.63557 l 3.12591,3.13278 3.12104,3.13279 h 0.75797 c 0.75306,0 0.77266,-0.014 2.95648,-1.7255 l 2.19953,-1.72167 1.41604,0.68554 c 0.78051,0.37803 2.03106,0.89119 2.78417,1.13595 l 1.37002,0.45149 0.1644,1.22412 c 0.092,0.67671 0.18721,1.44937 0.2105,1.72455 0.15301,1.64131 0.27526,2.41396 0.38191,2.41396 0.0656,0 0.0878,0.0878 0.0458,0.1958 -0.042,0.10661 0.1568,0.39366 0.44365,0.64634 l 0.52098,0.45537 4.44795,-0.042 4.45288,-0.0458 0.36333,-0.34082 c 0.47105,-0.43969 0.6659,-1.05956 0.70017,-2.20732 0.014,-0.51219 0.0656,-0.92939 0.11141,-0.93331 0.045,0 0.12899,-0.46316 0.1832,-1.02918 0.20264,-2.19952 0.0726,-2.00075 1.62956,-2.50898 0.75408,-0.24882 2.00465,-0.7619 2.77335,-1.14381 l 1.4043,-0.69236 1.93515,1.5218 c 2.63626,2.07709 2.59414,2.05457 3.38149,1.96643 0.64341,-0.0726 0.74624,-0.1604 3.75661,-3.17879 l 3.09554,-3.10633 -0.006,-0.63848 c -0.002,-0.35158 -0.0724,-0.76486 -0.1534,-0.91472 -0.0802,-0.1526 -0.85987,-1.18591 -1.7363,-2.29836 l -1.59135,-2.02029 0.65416,-1.32697 c 0.35549,-0.73053 0.86865,-1.96642 1.13206,-2.7469 0.26826,-0.78446 0.49748,-1.44253 0.51316,-1.46504 0.0199,-0.0223 1.11249,-0.1644 2.43259,-0.3212 2.93395,-0.3408 3.34329,-0.44757 3.80649,-0.9989 l 0.36726,-0.43579 v -4.33047 c 0,-4.77796 -0.032,-4.95721 -0.87646,-5.39395 -0.24088,-0.1262 -0.62284,-0.20264 -0.84906,-0.1684 -0.22143,0.032 -0.40543,0.016 -0.40543,-0.0382 0,-0.057 -0.46711,-0.1488 -1.03317,-0.20678 -0.566,-0.0609 -1.28483,-0.145 -1.59821,-0.1908 -0.3103,-0.046 -9.11234,-0.103 -19.5595,-0.1262 l -18.99349,-0.042 -0.0802,-0.46224 c -0.0912,-0.49358 -0.51605,-3.91425 -0.51605,-4.13947 0,-0.0766 0.22906,0.1342 0.50821,0.46318 0.64735,0.7531 1.21339,1.04787 2.03989,1.05573 1.42684,0.02 2.1339,-0.86475 2.13782,-2.67055 0,-0.54647 -0.0648,-1.22809 -0.145,-1.51893 -0.22619,-0.81084 -0.99886,-1.85479 -1.62956,-2.19559 -0.65417,-0.35155 -1.79407,-0.51217 -2.41398,-0.33686 z m 2.02325,1.08703 c 1.20942,0.899 1.54924,3.38932 0.59344,4.34515 -1.07918,1.07918 -2.82331,-0.1224 -3.24441,-2.2377 -0.20264,-1.00181 -0.2829,-2.34835 -0.13719,-2.25729 0.0648,0.042 0.23321,0.002 0.37017,-0.0802 0.41324,-0.2517 1.96644,-0.103 2.41785,0.23004 z m 1.64912,13.34681 c 0.11841,0.70022 0.1412,0.72276 0.82652,0.96758 l 0.70706,0.25262 0.47791,-0.36724 c 0.26062,-0.1988 0.56994,-0.3633 0.68158,-0.3633 0.1908,0 1.51892,1.30832 1.51892,1.49537 0,0.0458 -0.1958,0.32906 -0.43286,0.62381 l -0.43582,0.54254 0.32906,0.69335 c 0.30554,0.64241 0.37508,0.6992 0.89506,0.7413 0.30936,0.0222 0.64638,0.112 0.74626,0.1958 0.19501,0.1604 0.24786,1.77448 0.0684,2.0575 -0.0618,0.092 -0.41718,0.22238 -0.79617,0.28291 -0.65807,0.11059 -0.69627,0.1458 -0.94797,0.81476 l -0.26824,0.69628 0.88724,1.11738 -1.59428,1.59529 -0.61207,-0.43286 c -0.57096,-0.40542 -1.08314,-0.50045 -0.87255,-0.1568 0.0538,0.0842 0.0256,0.11059 -0.0538,0.0617 -0.0802,-0.0538 -0.33983,-0.0286 -0.58174,0.057 -0.38194,0.13421 -0.44754,0.23703 -0.55036,0.88723 l -0.1148,0.73446 -0.97142,0.042 c -1.11346,0.0496 -1.37006,-0.087 -1.37398,-0.73448 -0.002,-0.6042 -0.1106,-0.73446 -0.87155,-1.06352 l -0.6581,-0.27908 -0.47888,0.40936 c -0.25934,0.22237 -0.54252,0.40934 -0.6228,0.41324 -0.0802,0.002 -0.48186,-0.33296 -0.89118,-0.7462 l -0.7423,-0.75309 0.44358,-0.60031 0.44365,-0.60522 -0.28707,-0.66882 c -0.27908,-0.63852 -0.32512,-0.67769 -1.01358,-0.78834 l -0.71878,-0.11841 v -1.12813 c 0,-1.22805 -0.002,-1.22019 0.89116,-1.31225 0.63065,-0.0656 0.56212,-0.002 0.86765,-0.79228 l 0.24468,-0.62676 -0.43577,-0.60812 -0.4397,-0.60913 0.73054,-0.68454 c 0.39761,-0.37506 0.78442,-0.70312 0.85688,-0.73054 0.0766,-0.0256 0.35156,0.1148 0.61596,0.31732 0.57389,0.44068 0.5543,0.43676 1.31229,0.1224 0.60033,-0.24882 0.74914,-0.4818 0.75306,-1.18592 0,-0.20264 0.0462,-0.41229 0.10379,-0.46612 0.053,-0.0538 0.58074,-0.0802 1.17029,-0.0581 l 1.07134,0.0382 0.1224,0.71977 z m -2.60884,2.70389 c -0.58561,0.25646 -1.36223,0.96853 -1.64915,1.51888 -0.24468,0.46322 -0.48962,1.67948 -0.37898,1.8636 0.042,0.0684 0.092,0.34372 0.1078,0.61207 0.02,0.26728 0.21728,0.74914 0.44754,1.07818 1.17026,1.66776 3.51961,1.99682 5.02674,0.71198 2.46294,-2.11234 1.03217,-6.02563 -2.19657,-6.00215 -0.47008,0 -1.08213,0.0989 -1.35728,0.21752 z m 26.01209,-2.75379 c 0.042,0.3672 0.10781,0.68842 0.14201,0.71486 0.19079,0.1342 1.16243,0.53568 1.29266,0.53568 0.0842,0 0.3447,-0.1604 0.57388,-0.35548 0.2329,-0.195 0.5014,-0.35546 0.59638,-0.35546 0.0962,0 0.48574,0.31734 0.86474,0.70312 0.75404,0.7658 0.75012,0.71584 0.1342,1.71378 -0.2068,0.32609 -0.1988,0.40637 0.0802,1.02923 0.27525,0.61206 0.34766,0.67378 0.78051,0.67378 0.88329,0 0.92933,0.0646 0.92933,1.27698 v 1.10564 l -0.4436,0.0878 c -0.24468,0.0496 -0.58174,0.0878 -0.74621,0.0878 -0.23706,0 -0.36334,0.1606 -0.56216,0.71882 l -0.25646,0.72368 0.36724,0.47788 c 0.19881,0.26062 0.36331,0.55822 0.36331,0.6581 0,0.22144 -1.27701,1.54532 -1.48756,1.5375 -0.0802,0 -0.36723,-0.18319 -0.63553,-0.40936 l -0.48966,-0.40538 -0.64634,0.27909 c -0.74914,0.32122 -0.85689,0.45535 -0.86083,1.05566 -0.002,0.64731 -0.25966,0.78442 -1.37296,0.73448 l -0.97146,-0.042 -0.1262,-0.72271 c -0.11481,-0.69629 -0.1488,-0.73842 -0.81086,-1.01749 l -0.69239,-0.29473 -0.52096,0.41326 c -0.28705,0.23005 -0.56212,0.41324 -0.61205,0.41324 -0.0488,0 -0.43583,-0.34763 -0.85987,-0.77651 l -0.76578,-0.77663 0.44362,-0.55818 0.44754,-0.55529 -0.29376,-0.70311 c -0.28704,-0.67764 -0.32512,-0.70807 -1.02534,-0.83436 l -0.72661,-0.1302 -0.042,-0.97151 c -0.0286,-0.57386 0.0222,-1.04784 0.1148,-1.1624 0.0878,-0.1078 0.42796,-0.21446 0.75308,-0.238 0.55524,-0.0382 0.61206,-0.087 0.91466,-0.72662 l 0.32514,-0.68847 -0.42893,-0.54347 c -0.23705,-0.29759 -0.42797,-0.59247 -0.42797,-0.6571 0,-0.19981 1.32402,-1.4768 1.52968,-1.4768 0.1078,0 0.40932,0.1644 0.6698,0.36333 l 0.47792,0.36721 0.70805,-0.25265 c 0.6845,-0.24088 0.70802,-0.27112 0.79224,-0.91074 0.0488,-0.36334 0.1332,-0.70316 0.1872,-0.757 0.0538,-0.058 0.58174,-0.0802 1.17028,-0.058 l 1.07134,0.0382 0.0766,0.66984 z m -2.82328,2.8997 c -1.24277,0.61989 -1.92729,1.84791 -1.81271,3.25517 0.1568,1.92433 1.82443,3.34725 3.69095,3.15629 1.86365,-0.1918 3.09853,-1.53457 3.09853,-3.37073 0,-2.6167 -2.61963,-4.21491 -4.97677,-3.04073 z m -13.71706,-17.22195 c -1.27405,0.46716 -1.87434,1.57179 -1.76761,3.24344 0.11479,1.74903 1.14774,3.02211 2.74302,3.37861 1.92429,0.42793 3.32765,-0.73842 3.33548,-2.77341 0.002,-1.09486 -0.1686,-1.67556 -0.7384,-2.51386 -0.79908,-1.17022 -2.3983,-1.76662 -3.57249,-1.33478 z m 2.34053,1.22022 c 1.14774,1.2055 1.27799,3.27476 0.26444,4.28837 -0.5239,0.52392 -1.43076,0.55426 -2.1427,0.0766 -1.35731,-0.91465 -1.6638,-3.41968 -0.55428,-4.52923 0.33983,-0.3408 0.52002,-0.40544 1.14774,-0.40544 0.68454,0 0.78734,0.0462 1.28484,0.56998 z m 8.26332,-1.32694 c -0.1764,0.0382 -0.3212,0.129 -0.3212,0.20679 0,0.0802 -0.0618,0.10301 -0.1384,0.0571 -0.0726,-0.0462 -0.24086,0.12239 -0.37508,0.379 -0.195,0.38189 -0.22142,0.71488 -0.14881,1.95859 0.0462,0.82258 0.12621,1.83226 0.17941,2.24162 l 0.096,0.74622 h -0.52784 c -0.50534,0 -0.52394,0.016 -0.47791,0.46222 0.0382,0.43284 0.0802,0.4632 0.63067,0.50532 l 0.58956,0.042 0.1224,0.95288 c 0.1224,0.94794 0.1224,0.95188 0.60032,0.99789 0.47788,0.0462 0.47788,0.042 0.39076,-0.46323 -0.05,-0.27907 -0.1262,-0.73054 -0.1766,-1.00573 l -0.0842,-0.49746 h 0.95287 c 0.92542,0 0.95577,-0.014 0.87157,-0.31733 -0.0462,-0.1762 -0.0878,-0.40152 -0.0878,-0.4975 0,-0.1262 -0.27909,-0.1794 -0.90976,-0.1794 -1.05958,0 -0.99106,0.1184 -1.23194,-2.081 -0.1184,-1.10171 -0.1106,-1.52279 0.0344,-1.97033 0.1722,-0.51614 0.23702,-0.56998 0.73444,-0.6121 0.29854,-0.0222 0.73058,0.0199 0.95972,0.0989 0.37901,0.13421 0.41324,0.11961 0.41324,-0.19879 0,-0.5386 -1.19668,-1.00966 -2.0957,-0.82552 z m 14.90295,0.042 c -0.68454,0.16721 -1.16244,0.56995 -1.55216,1.29659 -0.28706,0.53958 -0.32906,0.78442 -0.28388,1.76369 0.1038,2.36404 1.42682,3.65674 3.76441,3.67926 0.56214,0.002 1.0557,-0.0256 1.10173,-0.0726 0.042,-0.042 0.014,-0.27112 -0.0724,-0.50824 l -0.1488,-0.42894 -0.97537,0.0684 c -0.84223,0.0618 -1.04886,0.0224 -1.50419,-0.25552 -1.32696,-0.82261 -1.60995,-3.36683 -0.474,-4.31871 0.54745,-0.4632 1.51889,-0.49748 2.29549,-0.0802 0.29088,0.1526 0.55429,0.28292 0.58462,0.28292 0.0286,0 0.014,-0.2068 -0.042,-0.4593 -0.1568,-0.77264 -1.51108,-1.2584 -2.69307,-0.96755 z m 14.24584,-0.006 c -0.73837,0.187 -1.29267,0.68456 -1.71381,1.54534 -0.36719,0.74918 -0.40148,0.94108 -0.39756,2.44825 0,1.88612 0.21053,2.67738 1.08603,4.06997 1.21727,1.93214 3.02212,3.00642 5.57419,3.32078 0.63458,0.0766 1.55316,0.1908 2.0428,0.25553 0.48962,0.0656 0.91368,0.0962 0.94111,0.0656 0.0256,-0.0256 -0.006,-0.35256 -0.0766,-0.71978 -0.83437,-4.42939 -1.11347,-8.3348 -0.7423,-10.28262 0.0684,-0.3594 0.0382,-0.38192 -0.68455,-0.47396 -0.41328,-0.0496 -0.8647,-0.1262 -1.0028,-0.1644 -0.22526,-0.0648 -0.24884,0.0618 -0.24884,1.28974 0,0.74522 -0.05,1.35732 -0.11061,1.35732 -0.058,0 -0.22905,-0.22524 -0.37895,-0.49754 -0.3398,-0.63848 -1.50717,-1.73232 -2.10745,-1.98108 -0.61992,-0.2606 -1.64132,-0.36725 -2.18091,-0.2329 z m 2.81157,2.0389 c 0.49354,0.37116 0.78049,0.79129 1.43467,2.09571 0.70017,1.4043 0.84609,1.83228 1.02923,3.0564 0.1148,0.78049 0.21052,1.76371 0.21446,2.18479 v 0.76876 l -0.99499,-0.0842 c -1.94294,-0.1644 -3.46182,-1.20063 -4.2041,-2.87623 -0.6581,-1.49636 -0.76875,-3.60378 -0.24086,-4.72509 0.4632,-0.99006 1.74804,-1.18494 2.76165,-0.42012 z m -81.25035,-1.49244 c 0.63066,3.94853 1.64422,14.03921 1.64422,16.3925 v 0.93326 l 2.88109,0.0908 c 2.94866,0.0878 4.15419,0.002 5.33619,-0.38974 0.74627,-0.24884 1.78233,-1.02144 1.65208,-1.23198 -0.0448,-0.0766 0,-0.1184 0.1038,-0.0948 0.10301,0.0223 0.34078,-0.28004 0.53571,-0.67376 0.27112,-0.55822 0.34372,-0.92152 0.33684,-1.72944 -0.0199,-1.83227 -1.05275,-3.41971 -2.81935,-4.33342 -0.50534,-0.2606 -0.91862,-0.50532 -0.91862,-0.54739 0,-0.042 0.2262,-0.19501 0.50534,-0.34767 1.05956,-0.56992 1.83617,-1.84008 2.61664,-4.26583 0.51611,-1.62172 1.13993,-3.89072 1.13993,-4.16594 0,-0.13721 -0.28292,-0.1722 -1.14775,-0.14121 l -1.15164,0.042 -0.47398,1.89302 c -0.85296,3.38539 -1.55318,4.77795 -2.70091,5.35575 -0.46712,0.23291 -0.91466,0.29088 -2.57066,0.33294 l -2.0046,0.0458 -0.0842,-0.54353 c -0.0726,-0.48572 -0.20265,-2.13094 -0.46615,-5.98252 l -0.0842,-1.17516 h -2.41398 l 0.0842,0.53569 z m 6.93148,9.14666 c 1.561,0.33296 2.72338,1.2094 3.11318,2.35322 0.1038,0.2979 0.188,0.93329 0.1918,1.40729 0.006,1.11737 -0.45148,1.8626 -1.43858,2.35226 -0.60426,0.2947 -0.92549,0.3408 -2.6892,0.38682 -1.64127,0.0382 -2.03887,0.006 -2.21516,-0.1686 -0.14119,-0.1422 -0.24882,-0.6581 -0.31347,-1.54143 -0.0538,-0.72661 -0.1804,-2.13874 -0.27911,-3.13668 l -0.1804,-1.81364 h 1.53069 c 0.8412,0 1.86655,0.0724 2.27979,0.1604 z m 49.05689,-9.28766 c 0.1908,0.9597 0.40932,2.94179 0.49262,4.50969 l 0.092,1.7059 0.53178,0.042 c 0.63166,0.0538 0.61596,0.1498 0.33296,-2.0428 -0.1106,-0.85295 -0.24885,-2.24157 -0.30268,-3.07887 l -0.099,-1.53064 h -0.56214 c -0.53958,0 -0.56308,0.02 -0.48574,0.39464 z m 15.28979,0.014 c 0,0.145 0.1644,1.47191 0.36331,2.94871 0.21049,1.53845 0.40152,3.79084 0.44755,5.26368 l 0.0842,2.57457 0.72662,0.0878 c 1.35439,0.1644 1.27409,0.23321 1.17811,-1.00964 -0.0462,-0.60812 -0.17921,-1.80583 -0.29758,-2.6666 -0.1998,-1.46897 -0.37509,-3.33945 -0.5856,-6.2166 l -0.092,-1.24277 h -0.91072 c -0.79127,0 -0.90979,0.0344 -0.90979,0.26062 h -0.002 z m -14.33402,7.68066 c -0.56602,0.35939 0.0962,1.55316 0.7502,1.35044 0.60027,-0.187 0.66493,-0.62677 0.1644,-1.12817 -0.37115,-0.36719 -0.59345,-0.425 -0.91466,-0.22237 z m 16.11242,5.44388 c -0.1568,0.0878 -0.33296,0.22908 -0.38976,0.31353 -0.188,0.2829 -0.11059,1.29266 0.12241,1.62954 0.49358,0.70415 1.73238,0.8843 2.04672,0.2947 0.21336,-0.39762 0.1644,-1.31614 -0.092,-1.67948 -0.20678,-0.2947 -0.99496,-0.73451 -1.29268,-0.72275 -0.0618,0 -0.23799,0.0766 -0.39467,0.1644 z m -56.50448,26.42929 c -0.97148,1.1174 -2.64703,3.06424 -3.73015,4.32265 l -1.96152,2.28762 -0.51704,-0.26349 c -1.02145,-0.52101 -2.61671,-0.26443 -3.48829,0.56209 -0.95675,0.90683 -1.25545,2.56283 -0.66984,3.70665 1.10951,2.17701 4.15813,2.32585 5.51242,0.27528 0.34476,-0.51608 0.39373,-0.73054 0.39373,-1.67556 0,-0.78344 -0.0684,-1.18591 -0.24468,-1.4572 l -0.24883,-0.37507 3.94465,-3.39718 c 2.16523,-1.87046 4.116,-3.55291 4.33437,-3.74091 l 0.3976,-0.3408 -0.9793,-0.97148 -0.98322,-0.97146 -1.75982,2.0389 z m 48.72397,-1.05956 -0.95676,0.96754 4.3304,3.73796 4.33439,3.73309 -0.24882,0.37899 c -0.17939,0.27111 -0.24882,0.66984 -0.24882,1.45718 0,0.94502 0.0496,1.15946 0.39467,1.67556 0.57288,0.86868 1.37688,1.34657 2.3748,1.41901 1.98992,0.146 3.41285,-1.15064 3.41285,-3.09849 0,-1.34263 -0.68843,-2.41007 -1.87437,-2.90263 -0.67767,-0.28388 -1.9821,-0.25266 -2.59806,0.057 l -0.47793,0.24468 -3.15628,-3.6684 c -1.73235,-2.01935 -3.22093,-3.6303 -3.30121,-3.58035 -0.0802,0.0496 -0.10659,0.0221 -0.053,-0.0581 0.0488,-0.0842 -0.14979,-0.41716 -0.44068,-0.7423 l -0.53174,-0.59249 -0.9597,0.97148 z"
       style="fill:#0000ff;fill-opacity:1;fill-rule:nonzero;stroke:none;stroke-width:0.2832;stroke-miterlimit:10;stroke-dasharray:none"
       id="path3546"
       inkscape:connector-curvature="0" /><g
       transform="matrix(0.66280479,0,0,0.66280479,286.71833,280.04025)"
       id="g6142"
       style="stroke-width:0.2832;stroke-miterlimit:10;stroke-dasharray:none"><path
         inkscape:connector-curvature="0"
         id="path3464"
         style="fill:#0000ff;fill-opacity:1;fill-rule:nonzero;stroke:none;stroke-width:0.2832;stroke-miterlimit:10;stroke-dasharray:none"
         d="m 218.96611,32.173468 -2.621,0.48 c -0.063,0.012 -0.133,0.071 -0.152,0.133 l -0.805,1.848 c -0.031,0.058 -0.024,0.144 0.016,0.199 l 1.523,2.195 c 0.035,0.055 0.031,0.137 -0.016,0.18 l -1.906,1.883 c -0.047,0.043 -0.129,0.051 -0.183,0.015 l -2.266,-1.535 c -0.051,-0.035 -0.145,-0.043 -0.203,-0.011 l -1.821,0.734 c -0.058,0.016 -0.121,0.086 -0.132,0.148 l -0.504,2.676 c -0.012,0.063 -0.074,0.113 -0.141,0.113 h -2.699 c -0.067,0 -0.129,-0.05 -0.137,-0.113 l -0.508,-2.676 c -0.011,-0.062 -0.07,-0.132 -0.132,-0.148 l -1.821,-0.734 c -0.058,-0.032 -0.152,-0.024 -0.203,0.011 l -2.266,1.535 c -0.054,0.036 -0.136,0.028 -0.183,-0.015 l -1.906,-1.883 c -0.047,-0.043 -0.055,-0.125 -0.016,-0.18 l 1.527,-2.195 c 0.036,-0.055 0.043,-0.141 0.012,-0.199 l -0.805,-1.848 c -0.019,-0.062 -0.089,-0.121 -0.156,-0.133 l -2.621,-0.48 c -0.062,-0.012 -0.117,-0.074 -0.117,-0.137 v -2.66 c 0,-0.066 0.055,-0.125 0.117,-0.141 l 2.559,-0.468 c 0.062,-0.012 0.132,-0.071 0.152,-0.133 l 0.797,-1.965 c 0.027,-0.059 0.023,-0.149 -0.012,-0.199 l -1.453,-2.09 c -0.039,-0.055 -0.031,-0.133 0.016,-0.176 l 1.906,-1.883 c 0.047,-0.047 0.129,-0.054 0.183,-0.019 l 2.079,1.41 c 0.054,0.035 0.144,0.039 0.203,0.008 l 0.914,-0.485 c 0.058,-0.031 0.125,-0.008 0.152,0.055 l 1.891,4.504 c 0.023,0.058 0,0.137 -0.055,0.168 l -0.226,0.14 c -0.047,0.024 -0.102,0.071 -0.149,0.11 -0.828,0.519 -1.379,1.433 -1.379,2.476 0,1.625 1.336,2.946 2.988,2.946 1.649,0 2.985,-1.321 2.985,-2.946 0,-1.043 -0.551,-1.957 -1.379,-2.476 -0.043,-0.039 -0.102,-0.086 -0.145,-0.11 l -0.23,-0.14 c -0.055,-0.031 -0.078,-0.11 -0.059,-0.168 l 1.895,-4.504 c 0.023,-0.063 0.094,-0.086 0.152,-0.055 l 0.914,0.485 c 0.059,0.031 0.145,0.027 0.199,-0.008 l 2.083,-1.41 c 0.054,-0.035 0.136,-0.028 0.183,0.015 l 1.906,1.887 c 0.047,0.043 0.051,0.121 0.016,0.176 l -1.453,2.09 c -0.035,0.05 -0.043,0.14 -0.012,0.199 l 0.797,1.965 c 0.02,0.062 0.086,0.121 0.152,0.133 l 2.555,0.468 c 0.066,0.016 0.117,0.075 0.117,0.141 v 2.656 c 0,0.067 -0.051,0.129 -0.117,0.141" /><path
         inkscape:connector-curvature="0"
         id="path3466"
         style="fill:#0000ff;fill-opacity:1;fill-rule:evenodd;stroke:none;stroke-width:0.2832;stroke-miterlimit:10;stroke-dasharray:none"
         d="m 201.94311,12.802468 h 0.574 v 1.925 c 0,0.7 -0.485,0.934 -1.192,0.934 -0.429,0 -0.746,-0.113 -0.968,-0.414 l 0.453,-0.336 c 0.101,0.16 0.242,0.215 0.543,0.215 0.41,0 0.59,-0.094 0.59,-0.363 v -0.293 h -0.801 c -0.617,0 -0.934,-0.387 -0.934,-0.836 0,-0.492 0.375,-0.864 1.016,-0.864 0.387,0 0.586,0.09 0.703,0.282 h 0.016 z m 0,0.992 c 0,-0.442 -0.168,-0.488 -0.649,-0.488 -0.39,0 -0.543,0.168 -0.543,0.355 0,0.207 0.16,0.34 0.5,0.34 h 0.692 z" /><path
         inkscape:connector-curvature="0"
         id="path3468"
         style="fill:#0000ff;fill-opacity:1;fill-rule:evenodd;stroke:none;stroke-width:0.2832;stroke-miterlimit:10;stroke-dasharray:none"
         d="m 203.15011,12.802468 h 0.574 v 1.699 c 0,0.414 0.277,0.59 0.562,0.59 0.149,0 0.243,-0.039 0.379,-0.137 l 0.418,0.488 c -0.176,0.133 -0.371,0.219 -0.601,0.219 -0.301,0 -0.563,-0.113 -0.743,-0.336 h -0.015 v 0.301 h -0.574 z" /><path
         inkscape:connector-curvature="0"
         id="path3470"
         style="fill:#0000ff;fill-opacity:1;fill-rule:evenodd;stroke:none;stroke-width:0.2832;stroke-miterlimit:10;stroke-dasharray:none"
         d="m 206.80611,12.802468 h 0.578 v 3.968 h -0.578 v -1.445 c -0.215,0.203 -0.445,0.336 -0.738,0.336 -0.352,0 -0.606,-0.156 -0.77,-0.367 -0.16,-0.203 -0.207,-0.383 -0.207,-1.074 0,-0.7 0.047,-0.883 0.207,-1.082 0.164,-0.211 0.418,-0.368 0.77,-0.368 0.293,0 0.558,0.133 0.738,0.329 z m -0.567,2.289 c 0.54,0 0.567,-0.465 0.567,-0.871 0,-0.414 -0.027,-0.883 -0.567,-0.883 -0.539,0 -0.566,0.441 -0.566,0.883 0,0.433 0.027,0.871 0.566,0.871" /><path
         inkscape:connector-curvature="0"
         id="path3472"
         style="fill:#0000ff;fill-opacity:1;fill-rule:evenodd;stroke:none;stroke-width:0.2832;stroke-miterlimit:10;stroke-dasharray:none"
         d="m 210.32211,12.802468 h 0.511 l 0.914,2.824 h -0.609 l -0.547,-1.977 h -0.012 l -0.652,1.977 h -0.418 l -0.648,-1.977 h -0.012 l -0.551,1.977 h -0.605 l 0.914,-2.824 h 0.507 l 0.602,1.98 h 0.008 z" /><path
         inkscape:connector-curvature="0"
         id="path3474"
         style="fill:#0000ff;fill-opacity:1;fill-rule:evenodd;stroke:none;stroke-width:0.2832;stroke-miterlimit:10;stroke-dasharray:none"
         d="m 213.52111,12.802468 h 0.578 v 1.925 c 0,0.7 -0.488,0.934 -1.195,0.934 -0.426,0 -0.743,-0.113 -0.965,-0.414 l 0.453,-0.336 c 0.101,0.16 0.242,0.215 0.543,0.215 0.41,0 0.586,-0.094 0.586,-0.363 v -0.293 h -0.797 c -0.617,0 -0.934,-0.387 -0.934,-0.836 0,-0.492 0.375,-0.864 1.012,-0.864 0.391,0 0.586,0.09 0.707,0.282 h 0.012 z m 0,0.992 c 0,-0.442 -0.164,-0.488 -0.645,-0.488 -0.39,0 -0.543,0.168 -0.543,0.355 0,0.207 0.16,0.34 0.496,0.34 h 0.692 z" /><path
         inkscape:connector-curvature="0"
         id="path3476"
         style="fill:#0000ff;fill-opacity:1;fill-rule:evenodd;stroke:none;stroke-width:0.2832;stroke-miterlimit:10;stroke-dasharray:none"
         d="m 214.73211,12.802468 h 0.574 v 1.699 c 0,0.414 0.277,0.59 0.558,0.59 0.149,0 0.243,-0.039 0.379,-0.137 l 0.422,0.488 c -0.179,0.133 -0.371,0.219 -0.601,0.219 -0.305,0 -0.563,-0.113 -0.742,-0.336 h -0.016 v 0.301 h -0.574 z" /><path
         inkscape:connector-curvature="0"
         id="path3478"
         style="fill:#0000ff;fill-opacity:1;fill-rule:evenodd;stroke:none;stroke-width:0.2832;stroke-miterlimit:10;stroke-dasharray:none"
         d="m 219.03211,14.001468 v 0.469 c 0,0.726 -0.543,1.191 -1.175,1.191 -0.555,0 -1.184,-0.355 -1.184,-1.453 0,-1.16 0.684,-1.438 1.274,-1.438 0.382,0 0.75,0.133 1.031,0.457 l -0.418,0.348 c -0.168,-0.172 -0.406,-0.269 -0.625,-0.269 -0.395,0 -0.684,0.234 -0.684,0.695 z m -1.781,0.469 c 0.012,0.425 0.262,0.656 0.606,0.656 0.336,0 0.586,-0.231 0.601,-0.656 z" /><path
         inkscape:connector-curvature="0"
         id="path3480"
         style="fill:#0000ff;fill-opacity:1;fill-rule:evenodd;stroke:none;stroke-width:0.2832;stroke-miterlimit:10;stroke-dasharray:none"
         d="m 194.66911,18.677468 c 0,-0.614 0.09,-0.848 0.305,-1.086 0.16,-0.172 0.426,-0.364 0.871,-0.364 0.449,0 0.715,0.192 0.871,0.364 0.223,0.238 0.313,0.472 0.313,1.086 0,0.609 -0.09,0.84 -0.313,1.082 -0.156,0.172 -0.422,0.363 -0.871,0.363 -0.445,0 -0.711,-0.191 -0.871,-0.363 -0.215,-0.242 -0.305,-0.473 -0.305,-1.082 m 1.781,-0.004 c 0,-0.406 -0.031,-0.52 -0.14,-0.672 -0.086,-0.113 -0.266,-0.203 -0.465,-0.203 -0.195,0 -0.375,0.09 -0.461,0.203 -0.109,0.152 -0.141,0.266 -0.141,0.676 0,0.406 0.032,0.519 0.141,0.668 0.086,0.117 0.266,0.207 0.461,0.207 0.199,0 0.379,-0.09 0.465,-0.207 0.109,-0.149 0.14,-0.262 0.14,-0.672" /><path
         inkscape:connector-curvature="0"
         id="path3482"
         style="fill:#0000ff;fill-opacity:1;fill-rule:evenodd;stroke:none;stroke-width:0.2832;stroke-miterlimit:10;stroke-dasharray:none"
         d="m 202.56011,18.458468 v 0.469 c 0,0.73 -0.551,1.195 -1.184,1.195 -0.551,0 -1.179,-0.359 -1.179,-1.457 0,-1.156 0.683,-1.438 1.269,-1.438 0.387,0 0.754,0.137 1.035,0.458 l -0.418,0.351 c -0.168,-0.172 -0.406,-0.273 -0.629,-0.273 -0.394,0 -0.683,0.234 -0.683,0.695 z m -1.789,0.469 c 0.011,0.429 0.269,0.66 0.605,0.66 0.34,0 0.59,-0.231 0.606,-0.66 z" /><path
         inkscape:connector-curvature="0"
         id="path3484"
         style="fill:#0000ff;fill-opacity:1;fill-rule:evenodd;stroke:none;stroke-width:0.2832;stroke-miterlimit:10;stroke-dasharray:none"
         d="m 203.05211,17.263468 h 0.574 v 1.679 c 0,0.387 0.242,0.61 0.571,0.61 0.32,0 0.562,-0.223 0.562,-0.61 v -1.679 h 0.578 v 1.875 c 0,0.644 -0.508,0.984 -0.953,0.984 -0.305,0 -0.566,-0.113 -0.746,-0.336 h -0.012 v 0.301 h -0.574 z" /><path
         inkscape:connector-curvature="0"
         id="path3486"
         style="fill:#0000ff;fill-opacity:1;fill-rule:evenodd;stroke:none;stroke-width:0.2832;stroke-miterlimit:10;stroke-dasharray:none"
         d="m 206.89611,17.735468 c 0.367,-0.34 0.797,-0.508 1.258,-0.508 0.668,0 1.191,0.317 1.191,0.872 0,0.449 -0.238,0.808 -0.832,0.843 l -0.477,0.035 c -0.289,0.024 -0.379,0.145 -0.379,0.266 0,0.199 0.125,0.344 0.493,0.344 0.312,0 0.543,-0.11 0.769,-0.262 l 0.356,0.41 c -0.282,0.235 -0.621,0.387 -1.125,0.387 -0.602,0 -1.067,-0.297 -1.067,-0.871 0,-0.484 0.348,-0.766 0.824,-0.801 l 0.508,-0.043 c 0.199,-0.019 0.352,-0.082 0.352,-0.281 0,-0.238 -0.238,-0.363 -0.567,-0.363 -0.382,0 -0.652,0.125 -0.902,0.363 z" /><path
         inkscape:connector-curvature="0"
         id="path3488"
         style="fill:#0000ff;fill-opacity:1;fill-rule:evenodd;stroke:none;stroke-width:0.2832;stroke-miterlimit:10;stroke-dasharray:none"
         d="m 209.66911,18.677468 c 0,-0.614 0.09,-0.848 0.313,-1.086 0.16,-0.172 0.422,-0.364 0.871,-0.364 0.445,0 0.711,0.192 0.867,0.364 0.223,0.238 0.312,0.472 0.312,1.086 0,0.609 -0.089,0.84 -0.312,1.082 -0.156,0.172 -0.422,0.363 -0.867,0.363 -0.449,0 -0.711,-0.191 -0.871,-0.363 -0.223,-0.242 -0.313,-0.473 -0.313,-1.082 m 1.789,-0.004 c 0,-0.406 -0.035,-0.52 -0.144,-0.672 -0.082,-0.113 -0.262,-0.203 -0.461,-0.203 -0.199,0 -0.379,0.09 -0.465,0.203 -0.106,0.152 -0.141,0.266 -0.141,0.676 0,0.406 0.035,0.519 0.141,0.668 0.086,0.117 0.266,0.207 0.465,0.207 0.199,0 0.379,-0.09 0.461,-0.207 0.109,-0.149 0.144,-0.262 0.144,-0.672" /><path
         inkscape:connector-curvature="0"
         id="path3490"
         style="fill:#0000ff;fill-opacity:1;fill-rule:evenodd;stroke:none;stroke-width:0.2832;stroke-miterlimit:10;stroke-dasharray:none"
         d="m 212.52511,18.208468 c 0,-0.637 0.507,-0.981 0.961,-0.981 0.3,0 0.558,0.114 0.738,0.336 h 0.012 v -0.3 h 0.578 v 2.824 h -0.578 v -1.68 c 0,-0.387 -0.243,-0.609 -0.567,-0.609 -0.324,0 -0.57,0.222 -0.57,0.609 v 1.68 h -0.574 z" /><path
         inkscape:connector-curvature="0"
         id="path3492"
         style="fill:#0000ff;fill-opacity:1;fill-rule:evenodd;stroke:none;stroke-width:0.2832;stroke-miterlimit:10;stroke-dasharray:none"
         d="m 215.44711,17.263468 h 0.574 v 1.699 c 0,0.41 0.273,0.59 0.558,0.59 0.149,0 0.243,-0.039 0.379,-0.137 l 0.418,0.488 c -0.176,0.133 -0.367,0.219 -0.597,0.219 -0.305,0 -0.567,-0.113 -0.747,-0.336 h -0.011 v 0.301 h -0.574 z" /><path
         inkscape:connector-curvature="0"
         id="path3494"
         style="fill:#0000ff;fill-opacity:1;fill-rule:evenodd;stroke:none;stroke-width:0.2832;stroke-miterlimit:10;stroke-dasharray:none"
         d="m 219.21211,18.091468 c -0.14,-0.172 -0.344,-0.293 -0.582,-0.293 -0.469,0 -0.742,0.262 -0.742,0.875 0,0.617 0.273,0.879 0.742,0.879 0.238,0 0.442,-0.121 0.582,-0.293 l 0.422,0.371 c -0.246,0.285 -0.59,0.492 -1.027,0.492 -0.66,0 -1.301,-0.414 -1.301,-1.449 0,-1.031 0.641,-1.446 1.301,-1.446 0.437,0 0.781,0.208 1.027,0.493 z" /><path
         inkscape:connector-curvature="0"
         id="path3496"
         style="fill:#0000ff;fill-opacity:1;fill-rule:evenodd;stroke:none;stroke-width:0.2832;stroke-miterlimit:10;stroke-dasharray:none"
         d="m 222.14611,18.458468 v 0.469 c 0,0.73 -0.551,1.195 -1.184,1.195 -0.551,0 -1.18,-0.359 -1.18,-1.457 0,-1.156 0.684,-1.438 1.274,-1.438 0.383,0 0.75,0.137 1.031,0.458 l -0.418,0.351 c -0.168,-0.172 -0.406,-0.273 -0.625,-0.273 -0.394,0 -0.683,0.234 -0.683,0.695 z m -1.785,0.469 c 0.007,0.429 0.265,0.66 0.601,0.66 0.34,0 0.59,-0.231 0.606,-0.66 z" /><path
         inkscape:connector-curvature="0"
         id="path3498"
         style="fill:#0000ff;fill-opacity:1;fill-rule:nonzero;stroke:none;stroke-width:0.2832;stroke-miterlimit:10;stroke-dasharray:none"
         d="m 198.66111,17.798468 c 0.543,0 0.571,0.437 0.571,0.875 0,0.441 -0.028,0.879 -0.571,0.879 -0.535,0 -0.566,-0.469 -0.566,-0.879 0,-0.406 0.031,-0.875 0.566,-0.875 m -1.144,-4.996 v 7.285 h 0.578 v -0.293 c 0.184,0.191 0.445,0.328 0.742,0.328 0.352,0 0.606,-0.156 0.77,-0.371 0.156,-0.199 0.199,-0.383 0.199,-1.078 0,-0.692 -0.043,-0.875 -0.199,-1.074 -0.164,-0.215 -0.418,-0.372 -0.77,-0.372 -0.297,0 -0.527,0.137 -0.742,0.336 v -2.238 c 0.191,0.223 0.449,0.336 0.754,0.336 0.449,0 0.957,-0.34 0.957,-0.98 v -1.879 h -0.578 v 1.683 c 0,0.383 -0.242,0.606 -0.563,0.606 -0.328,0 -0.57,-0.223 -0.57,-0.606 v -1.683 z" /><path
         inkscape:connector-curvature="0"
         id="path3500"
         style="fill:#0000ff;fill-opacity:1;fill-rule:nonzero;stroke:none;stroke-width:0.2832;stroke-miterlimit:10;stroke-dasharray:none"
         d="m 251.06811,34.509468 c 2.066,0 3.816,-0.703 5.238,-2.102 1.43,-1.41 2.144,-3.133 2.144,-5.164 0,-2.039 -0.703,-3.742 -2.109,-5.101 -1.492,-1.442 -3.25,-2.165 -5.273,-2.165 -1.996,0 -3.723,0.711 -5.188,2.141 -1.445,1.43 -2.172,3.137 -2.172,5.125 0,1.988 0.727,3.711 2.172,5.164 1.422,1.399 3.149,2.102 5.188,2.102 z m 0.023,-1.313 c -1.676,0 -3.094,-0.578 -4.25,-1.738 -1.203,-1.207 -1.805,-2.613 -1.805,-4.215 0,-1.609 0.598,-3.004 1.789,-4.18 1.196,-1.175 2.618,-1.761 4.266,-1.761 1.641,0 3.074,0.593 4.293,1.777 1.156,1.098 1.734,2.484 1.734,4.164 0,1.652 -0.586,3.059 -1.761,4.215 -1.176,1.16 -2.598,1.738 -4.266,1.738 z m 1.977,-4.152 v -2.969 h -0.844 v -3.527 h -2.289 v 3.527 h -0.844 v 2.969 c 0,0.133 0.047,0.242 0.137,0.332 0.094,0.09 0.207,0.137 0.336,0.137 h 3.031 c 0.121,0 0.23,-0.047 0.328,-0.137 0.094,-0.09 0.145,-0.199 0.145,-0.332 z m -3.016,1.871 c 0,0.684 0.34,1.023 1.027,1.023 0.684,0 1.028,-0.339 1.028,-1.023 0,-0.676 -0.344,-1.012 -1.028,-1.012 -0.683,0 -1.027,0.336 -1.027,1.012 z" /><path
         inkscape:connector-curvature="0"
         id="path3502"
         style="fill:#0000ff;fill-opacity:1;fill-rule:nonzero;stroke:none;stroke-width:0.2832;stroke-miterlimit:10;stroke-dasharray:none"
         d="m 234.77111,34.509468 c 2.062,0 3.816,-0.711 5.265,-2.129 0.692,-0.684 1.219,-1.465 1.578,-2.34 0.36,-0.879 0.54,-1.813 0.54,-2.797 0,-0.996 -0.176,-1.93 -0.532,-2.797 -0.355,-0.867 -0.879,-1.636 -1.574,-2.304 -0.719,-0.696 -1.539,-1.235 -2.449,-1.606 -0.91,-0.371 -1.856,-0.559 -2.828,-0.559 -0.973,0 -1.907,0.184 -2.797,0.551 -0.891,0.367 -1.692,0.903 -2.399,1.598 -0.703,0.695 -1.242,1.48 -1.609,2.351 -0.367,0.875 -0.555,1.797 -0.555,2.766 0,0.957 0.188,1.883 0.559,2.77 0.375,0.886 0.918,1.679 1.629,2.379 1.402,1.41 3.125,2.117 5.172,2.117 z m 0.023,-1.313 c -1.68,0 -3.097,-0.578 -4.25,-1.738 -0.578,-0.578 -1.023,-1.231 -1.336,-1.949 -0.308,-0.723 -0.465,-1.481 -0.465,-2.266 0,-0.777 0.157,-1.531 0.465,-2.25 0.313,-0.723 0.758,-1.367 1.336,-1.933 0.578,-0.571 1.235,-1 1.965,-1.297 0.727,-0.301 1.488,-0.45 2.285,-0.45 0.793,0 1.559,0.149 2.301,0.454 0.742,0.304 1.41,0.738 2.004,1.308 1.152,1.11 1.723,2.496 1.723,4.168 0,0.801 -0.145,1.567 -0.446,2.281 -0.297,0.719 -0.73,1.36 -1.301,1.922 -1.187,1.168 -2.613,1.75 -4.281,1.75 z m -0.09,-4.746 -0.988,-0.508 c -0.105,0.215 -0.234,0.368 -0.387,0.453 -0.152,0.086 -0.297,0.133 -0.429,0.133 -0.657,0 -0.989,-0.429 -0.989,-1.285 0,-0.391 0.086,-0.703 0.254,-0.933 0.164,-0.235 0.41,-0.352 0.735,-0.352 0.429,0 0.734,0.207 0.91,0.621 l 0.906,-0.453 c -0.191,-0.356 -0.461,-0.633 -0.801,-0.836 -0.343,-0.203 -0.722,-0.305 -1.133,-0.305 -0.66,0 -1.191,0.2 -1.593,0.598 -0.403,0.394 -0.602,0.949 -0.602,1.66 0,0.692 0.199,1.238 0.61,1.645 0.41,0.406 0.921,0.613 1.546,0.613 0.911,0 1.567,-0.352 1.961,-1.051 z m 4.25,0 -0.972,-0.508 c -0.106,0.215 -0.235,0.368 -0.391,0.453 -0.152,0.086 -0.297,0.133 -0.441,0.133 -0.657,0 -0.985,-0.429 -0.985,-1.285 0,-0.391 0.082,-0.703 0.25,-0.933 0.164,-0.235 0.41,-0.352 0.735,-0.352 0.429,0 0.734,0.207 0.91,0.621 l 0.922,-0.453 c -0.203,-0.356 -0.473,-0.633 -0.817,-0.836 -0.34,-0.203 -0.715,-0.305 -1.117,-0.305 -0.668,0 -1.199,0.2 -1.598,0.598 -0.402,0.394 -0.601,0.949 -0.601,1.66 0,0.692 0.203,1.238 0.609,1.645 0.41,0.406 0.926,0.613 1.547,0.613 0.914,0 1.563,-0.352 1.949,-1.051 z" /><path
         inkscape:connector-curvature="0"
         id="path3504"
         style="fill:#0000ff;fill-opacity:1;fill-rule:nonzero;stroke:none;stroke-width:0.2832;stroke-miterlimit:10;stroke-dasharray:none"
         d="m 267.36111,34.509468 c 2.062,0 3.808,-0.703 5.238,-2.117 1.433,-1.399 2.144,-3.118 2.144,-5.149 0,-2.035 -0.699,-3.738 -2.101,-5.113 -1.485,-1.434 -3.246,-2.153 -5.281,-2.153 -1.993,0 -3.719,0.711 -5.184,2.141 -1.449,1.426 -2.172,3.137 -2.172,5.125 0,1.981 0.723,3.695 2.172,5.149 1.43,1.414 3.156,2.117 5.184,2.117 z m 0.027,-1.313 c -1.676,0 -3.094,-0.582 -4.25,-1.75 -1.203,-1.203 -1.805,-2.601 -1.805,-4.203 0,-1.621 0.594,-3.012 1.789,-4.18 1.196,-1.175 2.614,-1.761 4.266,-1.761 1.641,0 3.07,0.593 4.289,1.777 1.16,1.106 1.738,2.492 1.738,4.164 0,1.66 -0.586,3.063 -1.761,4.203 -1.168,1.168 -2.59,1.75 -4.266,1.75 z m -3.293,-4.929 c 0.144,0.89 0.504,1.582 1.094,2.07 0.59,0.488 1.304,0.73 2.144,0.73 1.16,0 2.082,-0.363 2.766,-1.101 0.683,-0.735 1.027,-1.676 1.027,-2.828 0,-1.114 -0.355,-2.043 -1.066,-2.782 -0.711,-0.738 -1.633,-1.109 -2.766,-1.109 -0.832,0 -1.551,0.246 -2.156,0.738 -0.606,0.492 -0.973,1.196 -1.094,2.106 h 1.856 c 0.043,-0.883 0.586,-1.328 1.621,-1.328 0.515,0 0.933,0.222 1.25,0.664 0.316,0.441 0.472,1.031 0.472,1.761 0,0.774 -0.144,1.356 -0.433,1.758 -0.289,0.406 -0.707,0.606 -1.25,0.606 -0.985,0 -1.535,-0.426 -1.66,-1.285 h 0.543 l -1.465,-1.438 -1.461,1.438 z" /><text
         id="text3538"
         style="font-variant:normal;font-weight:normal;line-height:0%;font-family:Verdana;-inkscape-font-specification:Verdana;writing-mode:lr-tb;fill:#0000ff;fill-opacity:1;fill-rule:nonzero;stroke:none;stroke-width:0.2832;stroke-miterlimit:10;stroke-dasharray:none"
         transform="scale(1,-1)"
         x="151.87714"
         y="7.1792064"><tspan
           id="tspan3540"
           sodipodi:role="line"
           y="7.1792064"
           x="151.87714 166.60114 181.32513 195.45512 201.98914 209.65714 220.56514 231.77913 242.68713 249.77913 254.71114 264.07114 268.93112 279.73114 286.26514 295.62512 306.53314"
           style="font-size:18px;line-height:1.25">www.roboticia.com</tspan></text>
</g></g></svg>